<svg width="64" height="61" viewBox="0 0 64 61" fill="none" xmlns="http://www.w3.org/2000/svg">
<path d="M63.9771 13.8449L58.503 44.889C58.4335 45.2839 58.2098 45.6349 57.8815 45.8648L49.1038 52.011L48.0519 57.9768H58.1073C58.9422 57.9768 59.6189 58.6537 59.6189 59.4884C59.6189 60.3231 58.9422 61 58.1073 61H17.7123C17.7099 61 17.7074 61 17.7049 61H5.8927C5.05784 61 4.38109 60.3231 4.38109 59.4884C4.38109 58.6537 5.05784 57.9768 5.8927 57.9768H15.9481L14.8962 52.011L6.11854 45.8648C5.79022 45.6349 5.5665 45.2839 5.49696 44.889L0.0229433 13.8449C-0.0465911 13.4503 0.0433501 13.0438 0.273418 12.7155L6.77866 3.42491C7.07267 3.00498 7.54173 2.78006 8.01819 2.78006C8.31749 2.78006 8.61996 2.86879 8.88389 3.05366L18.1744 9.5589C18.8583 10.0378 19.0246 10.9803 18.5457 11.6641C18.067 12.3478 17.1243 12.5144 16.4405 12.0354L8.38808 6.3972L3.10906 13.9365L3.79594 17.832L9.58438 21.8849L8.7867 17.3608C8.64173 16.5388 9.19075 15.7547 10.0129 15.6098C10.1017 15.594 10.1899 15.5865 10.2772 15.5865C10.9968 15.5865 11.6347 16.1025 11.764 16.836L12.5617 21.3601L13.317 20.2814C13.7959 19.5974 14.7384 19.431 15.4222 19.9102C16.1061 20.3889 16.2724 21.3314 15.7936 22.0154L13.3042 25.5709L14.827 34.2072L15.6446 33.0395C16.1233 32.3558 17.066 32.1892 17.7498 32.6682C18.4337 33.1471 18.6 34.0896 18.1211 34.7734L15.5693 38.4178L17.1313 47.2757L17.9144 46.1573C18.3932 45.4736 19.336 45.3071 20.0197 45.7862C20.7035 46.2651 20.8698 47.2076 20.3909 47.8916L17.8738 51.4863L19.0182 57.9771H30.4884V50.2217L22.9112 42.6446C22.6278 42.361 22.4685 41.9766 22.4685 41.5757V10.0526C22.4685 9.65171 22.6278 9.26731 22.9112 8.98373L30.931 0.963997C31.2262 0.66893 31.613 0.521244 31.9998 0.521244C32.3867 0.521244 32.7736 0.66893 33.0687 0.963997L41.0884 8.98373C41.3719 9.26731 41.5312 9.65171 41.5312 10.0526V15.2577C41.5312 15.2598 41.5312 15.2618 41.5312 15.2639V28.3027C41.5312 28.3048 41.5312 28.3067 41.5312 28.3089V41.5759C41.5312 41.9767 41.3719 42.3612 41.0884 42.6447L33.5116 50.2214V57.9768H44.9821L46.1265 51.486L43.6094 47.8913C43.1305 47.2074 43.2968 46.2648 43.9806 45.7859C44.6643 45.3068 45.6071 45.4733 46.0859 46.157L46.869 47.2754L48.431 38.4175L45.8792 34.7731C45.4003 34.0894 45.5666 33.1468 46.2505 32.6679C46.9343 32.1889 47.8768 32.3553 48.3557 33.0392L49.1733 34.2069L50.6961 25.5706L48.2066 22.0151C47.7279 21.3312 47.8941 20.3886 48.5781 19.9099C49.2621 19.4307 50.2044 19.5974 50.6833 20.2811L51.4386 21.3598L52.2363 16.8357C52.3656 16.1022 53.0035 15.5862 53.7231 15.5862C53.8102 15.5862 53.8986 15.5939 53.9874 15.6095C54.8095 15.7544 55.3586 16.5385 55.2136 17.3605L54.4159 21.8846L60.2044 17.8317L60.8912 13.9362L55.6122 6.3969L47.5598 12.0351C46.876 12.5141 45.9335 12.3477 45.4546 11.6638C44.9757 10.9801 45.142 10.0375 45.8259 9.5586L55.1164 3.05335C55.3803 2.86848 55.6827 2.77975 55.9821 2.77975C56.4586 2.77975 56.9276 3.00453 57.2216 3.42461L63.7269 12.7152C63.9566 13.0438 64.0466 13.4501 63.9771 13.8449ZM14.1538 47.8006L12.5919 38.942L6.8036 34.8891L8.36556 43.7475L14.1538 47.8006ZM4.5383 22.0424L6.0611 30.6786L11.8494 34.7316L10.3266 26.0954L4.5383 22.0424ZM38.5078 18.9102L33.5115 23.9066V32.6759L38.5078 27.6794V18.9102ZM25.4916 27.679L30.4882 32.6755V23.906L25.4916 18.9095V27.679ZM30.4882 45.946V36.9508L25.4916 31.9543V40.9492L30.4882 45.946ZM31.9995 4.17059L25.4914 10.6787V14.6342L30.4881 19.6307V15.0368C30.4881 14.2021 31.1648 13.5252 31.9997 13.5252C32.8346 13.5252 33.5113 14.2021 33.5113 15.0368V19.6311L38.5077 14.6346V10.6787L31.9995 4.17059ZM38.5078 40.9493V31.955L33.5115 36.9514V45.9455L38.5078 40.9493ZM55.6344 43.7475L57.1964 34.8891L51.4081 38.942L49.8462 47.8006L55.6344 43.7475ZM53.6733 26.0954L52.1505 34.7316L57.9389 30.6786L59.4617 22.0424L53.6733 26.0954Z" fill="#1E1E1E"/>
</svg>
