<svg width="100" height="100" viewBox="0 0 100 100" fill="none" xmlns="http://www.w3.org/2000/svg">
<path fill-rule="evenodd" clip-rule="evenodd" d="M57.6552 87.301L57.1522 88.968C57.8235 90.0022 58.7306 90.6336 59.8381 90.9489L61.5849 91.2635C62.1215 91.3983 62.4577 91.6233 62.6256 91.9831C62.9949 92.7951 62.6587 93.1549 61.6848 93.1097L61.517 92.6145C61.4502 92.479 61.3155 92.3894 61.114 92.2999L60.309 92.3443C60.1412 92.479 60.1412 92.7041 60.309 93.0653C60.4426 93.3799 60.7452 93.6042 61.215 93.6952C61.5164 95.3164 62.0542 96.4416 62.8271 97.0264C63.6331 97.7918 64.3723 97.9265 64.9758 97.4772C65.1784 97.3417 65.2115 97.1174 65.1436 96.7562C65.0768 96.352 64.8422 96.0804 64.3723 95.9922C63.7336 95.9012 63.5321 96.0804 63.8015 96.6222C63.3316 96.6666 62.8944 96.352 62.4577 95.6776C62.1215 95.0913 61.8869 94.4599 61.7185 93.6952L62.5245 93.6508L63.2969 93.3362C63.6331 93.1111 63.7331 92.7048 63.5984 92.1644C63.4647 91.5796 63.1964 91.1747 62.7934 90.9941L61.4165 90.5899C60.8456 90.4544 60.3421 90.2752 59.9728 90.0495C58.8974 89.4618 58.1261 88.5624 57.6552 87.301ZM35.4261 92.3443L36.1647 92.6589L36.9371 92.7499C36.8029 93.5154 36.5678 94.1905 36.1979 94.7308C35.8285 95.3608 35.3587 95.6769 34.8883 95.6769C35.1235 95.1802 34.9557 94.9559 34.2838 95.0455C33.8477 95.135 33.5788 95.3601 33.5114 95.6769C33.4783 95.9456 33.5446 96.1721 33.713 96.3964C33.9481 96.6666 34.2838 96.7562 34.7873 96.711C35.1903 96.6215 35.5597 96.486 35.8622 96.2172C36.634 95.5414 37.1718 94.3711 37.4743 92.7499C38.0115 92.7041 38.3471 92.5235 38.4813 92.1637C38.616 91.8491 38.616 91.5789 38.4482 91.3531C38.314 91.174 38.0451 91.0829 37.6421 91.2184C37.4406 91.2628 37.2728 91.3976 37.206 91.5782L37.0045 92.163C36.0306 92.2074 35.6949 91.8484 36.0306 91.0378C36.2321 90.6766 36.5678 90.4078 37.1049 90.3168L38.8512 90.0022C39.5231 89.823 40.2949 89.2826 41.1346 88.4262L40.9668 86.5815C40.4296 87.7066 39.6909 88.5624 38.7844 89.1472C38.415 89.4174 37.9115 89.5528 37.2733 89.6424L35.8291 89.957C35.3929 90.1821 35.1577 90.5433 35.0236 91.1274C34.922 91.7143 35.0567 92.1185 35.4261 92.3443ZM72.8336 77.3513C72.2291 77.5305 71.7592 77.9813 71.4898 78.7918L69.4758 78.0279L70.1472 79.6476L71.1547 79.8282C71.2215 79.8726 71.2894 79.9178 71.2894 80.0518L71.3562 80.638C71.7592 82.5293 72.6321 83.79 74.009 84.4665L74.9828 84.7353C75.0497 84.5117 74.9486 83.8351 74.7135 82.7529C73.9411 82.439 73.3708 82.0785 73.0346 81.6292C72.7662 81.2235 72.5647 80.8186 72.4637 80.3678C72.3632 79.9736 72.3632 79.5458 72.4637 79.1516C72.5647 78.7023 72.7331 78.3876 73.0014 78.2515L72.8336 77.3513Z" fill="black"/>
<path fill-rule="evenodd" clip-rule="evenodd" d="M77.9381 77.7571L78.2732 77.2619C77.6687 76.7215 76.9305 76.3603 76.0572 76.2263C75.1512 76.0457 74.3104 76.1818 73.5049 76.5409L73.7743 77.7112C74.3451 77.4876 75.0833 77.5758 75.8893 77.9814C76.3257 78.2209 76.6995 78.6281 76.9637 79.1518L77.2999 80.0082C77.4346 80.368 77.4677 80.6382 77.4004 80.8188C77.3672 80.9535 77.1999 81.0438 76.8637 81.1334L75.7894 81.3126C74.7818 81.2681 74.0763 80.8188 73.7411 80.0512C73.7069 79.9631 73.5054 79.9165 73.0687 79.872C73.0687 80.0971 73.1029 80.2777 73.2034 80.4124C73.4049 80.8181 73.6064 81.1334 73.8748 81.3584C74.4793 81.8522 75.2853 82.169 76.2592 82.2586C76.8637 82.303 77.3667 82.169 77.7366 81.944L77.9392 82.7531L77.0989 83.0247C76.5628 83.0928 76.023 83.0928 75.4868 83.0247C75.6215 83.3845 75.6884 83.7901 75.6884 84.1951H76.9984C77.9044 84.0145 78.509 83.7909 78.7773 83.4296C78.7402 82.9153 78.6383 82.4132 78.4758 81.9447C79.1482 81.7196 79.5833 81.4939 79.718 81.3133C79.5833 80.4131 79.1803 79.4685 78.509 78.5218L77.9381 77.7571ZM41.7391 93.1099C42.1084 92.7042 42.5451 92.5236 43.0492 92.5236C43.5858 92.5236 43.9888 93.0203 44.1909 93.9656L44.6607 93.785C44.5934 92.9758 44.4255 92.3896 44.0899 91.9832C44.2246 91.6693 44.5265 91.2193 45.0637 90.7233C44.7617 90.2281 44.5265 89.7773 44.3924 89.3279L43.5527 91.3533C43.519 91.4443 43.4185 91.4887 43.3175 91.4443L42.9145 91.3088C41.6386 91.2193 40.5974 91.8492 39.8256 93.1106C39.5236 93.6954 39.3889 94.0552 39.4225 94.2358L40.7321 94.3712C40.9331 93.9204 41.2687 93.5162 41.7391 93.1099Z" fill="black"/>
<path fill-rule="evenodd" clip-rule="evenodd" d="M42.6457 93.5592C42.4779 93.5592 42.2763 93.6036 42.1085 93.7842C41.7469 94.143 41.4487 94.6043 41.2351 95.1351C41.0488 95.6853 40.9682 96.2891 41.0005 96.8917L40.3959 97.0723C40.3291 96.3055 40.3628 95.6304 40.5638 95.0004L40.0603 95.0449H39.5562C39.4221 95.4046 39.3547 95.8103 39.2874 96.2596C39.1869 97.2508 39.2206 97.9718 39.4221 98.5566L40.3286 98.6462L40.5301 99.861C41.5377 100.086 42.5783 99.4116 43.72 97.88C44.4924 96.7993 44.8954 95.6289 44.8954 94.4579L44.1904 94.6385C44.2572 95.3595 44.0226 96.079 43.5185 96.7549C43.015 97.4758 42.5452 97.8356 42.108 97.8356C41.5376 96.2596 41.7386 94.9546 42.6452 93.9641L42.9808 93.6495L42.6457 93.5592ZM21.8266 79.738C21.7593 79.6025 21.7261 79.5574 21.6588 79.5574C21.3568 79.6469 21.0211 79.963 20.6181 80.5034C20.1814 81.0882 19.9462 81.539 19.8794 81.9439C19.9131 82.1231 20.1146 82.3933 20.5844 82.753C21.0548 83.1143 21.4573 83.2934 21.8271 83.3844C22.2302 82.4843 22.6326 81.8099 23.0025 81.3125L22.0287 80.1422L21.8266 79.738ZM33.8814 74.4689C33.7472 74.8746 33.8814 75.5045 34.2507 76.2255C32.4708 76.1811 31.1276 76.7659 30.2547 78.0272C30.3884 78.7016 30.7251 79.242 31.2959 79.6018C30.7919 79.9164 30.3221 80.4124 29.8854 81.2229C29.6502 81.5841 29.3819 82.4843 29.0457 83.8797C29.5151 84.0183 29.9599 84.2783 30.3552 84.6451L31.4964 85.5897C32.4703 86.2655 33.612 86.3551 34.9557 85.8147L34.6869 87.5713L37.0376 87.4803C37.9105 87.0295 38.5487 86.2655 38.8844 85.1848L39.5226 86.5343C41.3361 84.5104 41.5708 82.2134 40.1608 79.6462L39.4889 79.7372L38.3477 80.0074C38.1799 82.0779 37.9447 83.4733 37.609 84.1047L37.2397 83.1135C37.4075 81.4924 37.4406 80.6818 37.2728 80.6818H37.2397C35.9296 81.3118 34.0497 81.9876 31.5648 82.5732L32.2361 81.8092L34.8216 80.593L37.0376 79.3768C36.3994 79.0629 35.526 78.883 34.3849 78.8364L34.7542 78.2516L36.2316 78.3426C36.7688 78.387 37.3728 78.5218 38.0115 78.7468L40.1608 78.5218L40.2276 78.2071L40.3286 77.4876C40.4628 76.4505 40.1939 75.5948 39.5226 74.8753C38.7502 74.0647 37.4743 73.5695 35.7276 73.3889L35.828 73.8397C35.8954 74.1543 35.9285 74.2905 35.8954 74.2905L34.9889 74.2446C34.613 74.2374 34.2388 74.3132 33.8814 74.4689ZM58.3944 76.811L59.0321 79.3323L61.6512 79.738L64.707 77.8022L65.3794 78.5218C64.707 78.5218 63.801 79.108 62.6587 80.1888C64.0356 80.9979 65.8823 81.8099 68.2668 82.71L68.7366 83.6102C66.6547 83.1594 64.4044 82.3044 61.9874 81.1341C61.8195 81.1341 61.7859 82.2592 61.8864 84.5118L61.6849 85.4119C61.2818 84.7361 61.0803 83.2504 61.0803 80.9986L59.4014 80.6388L58.4607 80.7284C57.5879 82.1238 57.8572 84.2402 59.3346 87.1227L60.3422 85.6807C61.4165 87.7526 62.9613 88.652 64.9753 88.3826C65.1779 87.8888 65.2778 87.2137 65.211 86.4468C66.4869 87.1678 67.7291 87.0316 68.9381 85.996L70.2471 84.6465C70.718 84.1957 71.0874 83.8811 71.3557 83.7915C70.5497 81.9453 69.5421 80.684 68.3336 80.0526C69.0049 79.4692 69.3064 79.1094 69.1728 78.9288C69.106 78.4336 68.6351 77.8036 67.6954 77.0375C67.829 76.7229 67.8969 76.5867 67.93 76.5867C67.2924 75.506 66.0496 75.1913 64.3034 75.5955C64.3034 75.2358 64.4381 74.7864 64.6396 74.3808C63.531 73.7494 62.5914 73.4806 61.7511 73.5258C60.1401 73.7049 59.0652 74.2016 58.5954 75.0559C58.2939 75.5948 58.2266 76.1811 58.3944 76.811ZM57.8578 79.5574C57.6221 78.296 57.4206 77.4424 57.2869 76.9902C57.0175 76.2262 56.6145 75.6858 56.0768 75.3691L56.7155 74.6051C55.1035 72.354 52.8195 72.1275 49.9321 73.9751L50.3346 76.6304C51.1406 76.9006 51.6447 77.1257 51.8798 77.2618C52.1145 77.3966 52.8874 78.0272 54.1296 79.1517L54.0628 79.9171C52.8195 78.7024 51.6452 78.162 50.4693 78.2516L50.3688 81.0438L52.7185 82.9781L53.1215 84.2839L52.7185 84.1943L50.3009 82.2585C50.0326 84.42 50.0994 86.6704 50.4687 89.1931L50.1331 90.3169C49.6296 88.3811 49.3944 86.9872 49.3944 86.1301L49.2602 82.6642C49.025 82.7086 48.7904 82.8433 48.5889 83.1135L47.1783 84.9138V83.9692C47.4991 83.3584 47.8587 82.7861 48.2532 82.2585C48.5889 81.8973 48.8909 81.5841 49.1597 81.4035C49.1295 80.3643 49.1744 79.3236 49.2939 78.296L48.7572 78.3419C48.4216 78.4315 48.0854 78.6106 47.6824 78.8357C47.011 79.2865 46.2386 79.9623 45.4326 80.8624L44.9965 80.5478L46.0035 79.1954C46.3391 78.7461 46.7085 78.3419 47.112 78.0265C47.777 77.5273 48.4884 77.1485 49.2276 76.8999L49.0935 75.0996L49.1603 73.9278L48.4552 73.6591C46.9105 72.8026 45.4331 72.6665 44.1236 73.343C42.9145 73.9278 42.1085 74.919 41.605 76.4054L43.1497 78.1605C42.9151 78.4307 42.6125 79.0621 42.2769 80.0067C41.9075 80.9965 41.7397 81.8085 41.6723 82.4384C41.5382 84.4193 41.706 86.2189 42.2432 87.8415C42.6799 87.7956 43.1497 87.6164 43.6538 87.2997L44.7618 86.3099C44.7618 87.4803 44.896 88.4249 45.1643 89.1917C45.5336 90.3155 46.2055 91.2171 47.2131 92.0276C47.2799 92.0721 47.3472 92.0276 47.4146 91.847C47.4477 91.7123 47.5151 91.622 47.5824 91.6678C47.7834 92.3874 48.2201 93.0632 48.8919 93.6488C49.698 94.3697 50.1341 94.8635 50.3025 95.1337C51.108 94.3697 51.9477 92.8382 52.788 90.5871C52.8206 90.5427 53.0221 90.7218 53.4256 91.0809C53.9286 89.5063 54.097 88.0644 53.8955 86.8044L54.9698 87.5699L56.2799 88.1547C56.7497 86.9399 57.0181 85.9021 57.1191 85.1382L57.1859 84.1026C57.0181 81.941 56.615 80.8159 55.9437 80.6804C56.514 80.5034 57.1522 80.1429 57.8578 79.5574ZM58.6959 100C58.7638 99.8194 58.8306 99.3686 58.8974 98.6476H59.4014C59.4693 97.7926 59.4014 97.0731 59.2336 96.4861L58.9321 96.5305L58.4612 96.7111C57.7899 96.8917 57.2869 96.8917 56.8828 96.7111C56.9507 97.3855 56.8828 98.1517 56.6813 99.0533C56.9507 99.3234 57.3201 99.5485 57.8578 99.7742L58.6959 100Z" fill="black"/>
<path fill-rule="evenodd" clip-rule="evenodd" d="M23.9086 76.3603C23.8417 76.4061 23.8417 76.4499 23.8417 76.495L24.3116 77.7112L24.7141 77.5306L25.4527 77.3959L26.3593 77.575C26.6281 77.7105 26.8628 77.8897 26.9969 78.1169C27.1311 78.3419 27.1985 78.5211 27.1648 78.7017C27.1648 79.151 26.9296 79.5122 26.4592 79.8269C26.1909 80.0505 25.8552 80.1415 25.519 80.1415C25.1497 80.1415 24.6799 80.0067 24.1421 79.7373L23.5039 79.0629L23.1014 78.4315C23.1014 78.3419 23.3361 78.1613 23.7728 77.8897L23.3703 77.2153C22.9872 77.4508 22.617 77.7222 22.2623 78.0273C22.0944 78.2064 22.0276 78.3419 22.0944 78.5211L22.699 79.4671C23.4377 80.5923 24.2774 81.1327 25.2507 81.1327L25.7879 81.0882C26.1909 81.0438 26.4592 80.9528 26.6276 80.7722L27.2653 81.0882C27.1311 81.3118 26.8959 81.539 26.5602 81.7182L25.3849 82.0328L25.116 82.0772L23.6723 81.6716L23.1688 82.3474L23.2693 82.4385C23.7397 82.7086 24.2432 82.8427 24.8145 82.8427H25.2176L25.5532 83.383C25.2844 83.5636 24.9156 83.6532 24.4447 83.6532C23.9412 83.6532 23.404 83.5185 22.8668 83.249L22.7326 83.158L22.5985 83.5192L22.498 83.7442C22.3975 83.9678 22.3302 84.104 22.3975 84.1936C22.6664 84.4186 23.0688 84.5097 23.5055 84.5097L24.1101 84.4186L23.9759 85.093C24.8156 85.0486 25.6548 84.6888 26.4603 84.0123C27.1658 83.4275 27.703 82.7975 28.0724 82.0765C28.5085 81.3111 28.7437 80.5916 28.7774 79.8706L30.0533 79.915L29.4829 78.6551L29.3825 78.6092L28.7442 78.7002H28.6438C28.4759 78.0688 28.1397 77.5285 27.6025 77.0791C26.7634 76.4477 25.9237 76.1345 25.1176 76.1345C24.709 76.1385 24.3025 76.2144 23.9086 76.3603ZM56.5477 91.0831L55.7417 91.1275L55.0704 91.2629L54.5663 90.1822L53.9955 91.488L54.3317 92.0284L53.9623 92.7493C53.4594 94.2343 53.5262 95.6763 54.1302 97.1168C54.6679 98.3316 55.2045 98.963 55.7086 99.0977L55.9769 98.4219C56.1784 97.7475 56.2794 97.2057 56.2794 96.7112C55.822 96.5009 55.4235 96.1083 55.1372 95.586C54.929 95.2535 54.7696 94.8712 54.6673 94.4593L54.6342 93.6502L54.6999 93.246C54.8678 92.8848 55.0362 92.6598 55.1708 92.5236L56.5146 92.4354C57.0513 92.7952 57.3538 93.1098 57.4885 93.4252C57.7899 94.0996 57.8904 94.64 57.7568 95.0463C57.4206 95.181 57.0513 95.181 56.6482 95.0019C56.3131 94.9109 56.0437 94.5977 55.8433 94.1913L55.2045 94.3719L55.5407 95.0463C56.1453 95.9465 57.086 96.2181 58.3282 95.8569L58.9995 95.5867C59.2679 95.4512 59.4025 95.3165 59.4025 95.181C59.2679 94.5977 59.1342 94.1469 58.9664 93.8301L59.4025 93.5599C58.8985 92.6153 58.395 91.9839 57.8241 91.579C57.5884 91.4443 57.1523 91.2637 56.5477 91.0831Z" fill="black"/>
<path fill-rule="evenodd" clip-rule="evenodd" d="M75.9904 31.4717V35.6141H24.009V31.4717L2.98843 34.5333L0.033674 44.7539C0.772364 45.7895 1.37689 47.0502 1.84672 48.5359C2.21607 49.6611 2.3839 50.9668 2.3839 52.4984C2.3839 54.0285 2.21607 55.3343 1.84672 56.5046C1.37689 57.9466 0.772364 59.16 0 60.197L2.95529 70.2821L24.0096 73.3431V69.0652H75.991V73.3431L97.0458 70.2821L100 60.197C99.2618 59.16 98.6562 57.9459 98.1864 56.4595C97.8171 55.2892 97.6156 53.9834 97.6156 52.4984C97.6156 51.012 97.8171 49.7062 98.1864 48.5359C98.6562 47.0502 99.2618 45.7895 100 44.7539L97.011 34.5333L75.9904 31.4717Z" fill="black"/>
<path fill-rule="evenodd" clip-rule="evenodd" d="M77.5347 33.7227V35.7043L94.1568 37.5497L94.2915 37.7296H5.70861L5.84277 37.5497L22.498 35.7043V33.7227L4.13021 36.3787L1.67896 44.4836C3.12266 46.7347 3.86135 49.3915 3.86135 52.4983C3.86135 55.4252 3.12266 58.0361 1.67896 60.333L4.09653 68.481L22.498 71.0933V69.1124L5.84277 67.3106L5.70861 67.13H94.2915L94.1568 67.3106L77.5347 69.1124V71.0933L95.9031 68.481L98.3206 60.333C96.8769 58.0361 96.1714 55.4252 96.1714 52.4983C96.1714 49.6617 96.8769 47.0049 98.3206 44.4836L95.8694 36.3787L77.5347 33.7227Z" fill="white"/>
<path fill-rule="evenodd" clip-rule="evenodd" d="M96.809 44.2587L95.2317 39.3064H4.76781L3.18994 44.2587C4.49949 46.6001 5.17083 49.3464 5.17083 52.4991C5.17083 55.56 4.49949 58.2605 3.18994 60.5574L4.76781 65.5563H95.2317L96.8427 60.5574C95.5 58.2605 94.8276 55.56 94.8276 52.4991C94.8276 49.3464 95.5 46.5993 96.809 44.2587Z" fill="black"/>
<path fill-rule="evenodd" clip-rule="evenodd" d="M31.0608 28.41H29.5161V28.9504H30.0202V31.2918H30.5568V28.9504H31.0608V28.41ZM32.0684 30.0311H32.2699L32.5388 31.2918H33.0759L32.7066 29.8957C32.9754 29.7609 33.0759 29.5359 33.0759 29.2205C33.0759 28.6802 32.8413 28.41 32.3709 28.41H31.5317V31.2918H32.0689L32.0684 30.0311ZM32.1689 29.581H32.0684V28.9504H32.1689C32.4035 28.9504 32.5045 29.0399 32.5045 29.265C32.5045 29.4907 32.4035 29.581 32.1689 29.581ZM34.6538 28.41H33.9151L33.4116 31.2918H33.8814L33.9819 30.7062H34.486L34.5865 31.2918H35.1236L34.6538 28.41ZM34.2513 28.9955L34.3855 30.211H34.0498L34.2171 28.9955H34.2513ZM36.1985 28.41H35.5945V31.2918H36.2659C36.9041 31.2918 37.2061 30.7965 37.2061 29.8061C37.2061 28.8601 36.8699 28.41 36.1985 28.41ZM36.1985 30.7514H36.1317V28.9052H36.1985C36.4674 28.9052 36.6015 29.2205 36.6015 29.7602C36.6015 30.4367 36.4674 30.7514 36.1985 30.7514ZM39.0865 28.9504V28.41H37.7096V31.2918H39.0865V30.7062H38.2468V30.0763H38.8176V29.5359H38.2468V28.9504H39.0865ZM63.397 28.41L63.1286 30.0311H63.0955L62.894 28.41H62.1216V31.2918H62.5246V29.0858L62.894 31.2918H63.1965L63.5985 29.1302V31.2918H64.1362V28.41H63.397ZM64.606 31.2918H65.0769L65.1779 30.7062H65.6809L65.7477 31.2918H66.3186L65.8487 28.41H65.1432L64.606 31.2918ZM65.4463 28.9955L65.613 30.211H65.2448L65.4463 28.9955ZM67.3598 30.0311H67.5276L67.796 31.2918H68.3337L67.9643 29.8957C68.2327 29.7609 68.3337 29.5359 68.3337 29.2205C68.3337 28.6802 68.099 28.41 67.6281 28.41H66.7889V31.2918H67.3598V30.0311ZM67.3598 28.9504H67.4266C67.696 28.9504 67.796 29.0399 67.796 29.265C67.796 29.49 67.6955 29.5803 67.4598 29.5803H67.3593L67.3598 28.9504ZM69.9458 28.41L69.408 29.6255V28.41H68.8719V31.2918H69.408V30.4812L69.6432 30.0311L69.9458 31.2918H70.4835L70.0126 29.356L70.4835 28.41H69.9458ZM62.894 12.6516H52.9543L49.8654 0L46.7759 12.6516H36.8367L44.896 20.5308L41.8066 33.2275L49.8654 25.3483L57.9247 33.2275L54.8358 20.5308L62.894 12.6516Z" fill="black"/>
<path fill-rule="evenodd" clip-rule="evenodd" d="M26.1583 47.4549C24.983 47.7251 24.0428 48.5357 23.3041 49.7505C22.5317 51.0118 22.1624 52.4524 22.1624 54.0283C22.1624 55.9197 22.5654 57.4957 23.3377 58.7556C24.0764 59.8808 25.0166 60.6483 26.2257 61.0081C27.2664 61.3679 28.3413 61.2331 29.4493 60.6025C30.591 60.0177 31.3971 59.1605 31.8664 57.9472C31.9668 57.6325 31.9 57.3158 31.6985 56.956C31.497 56.5962 31.1945 56.4608 30.792 56.5052C30.1538 57.4512 29.4825 58.1278 28.7769 58.3965L27.1985 58.4861C26.4598 58.3069 25.9563 57.7221 25.7211 56.8205C25.6206 56.4608 25.7211 56.1906 25.99 56.1461C26.3593 56.1017 27.2995 55.6954 28.8106 54.8848C29.8518 54.391 30.6573 53.895 31.1945 53.3998C31.7322 52.9046 31.8327 52.2746 31.5975 51.4641C31.1277 50.1131 30.4895 49.0324 29.6834 48.3121C28.6433 47.3654 27.4679 47.0952 26.1583 47.4549ZM28.5759 51.4175C28.7101 52.0023 28.7101 52.4516 28.5423 52.7684C28.4081 52.992 28.1061 53.2178 27.6694 53.3984L26.8297 53.8026L25.9237 54.0728C25.6885 54.0728 25.5207 53.8936 25.4533 53.5324C25.3192 53.0372 25.3192 52.3176 25.487 51.4175C25.688 50.4263 26.0242 49.7963 26.4603 49.6165C27.5352 49.2115 28.2403 49.7971 28.5759 51.4175ZM74.0091 47.4549C72.8668 47.7251 71.894 48.4905 71.1548 49.7505C70.4156 51.0118 70.0473 52.4072 70.0473 54.0283C70.0473 55.9197 70.4493 57.4957 71.2216 58.7556C71.9272 59.8808 72.9016 60.6483 74.0759 61.0081C75.1513 61.3679 76.2252 61.2331 77.3332 60.6025C78.4418 60.0177 79.2467 59.1605 79.7508 57.9472C79.8186 57.6325 79.7508 57.3158 79.5493 56.956C79.3478 56.5962 79.0463 56.4608 78.6764 56.5052C78.0387 57.4512 77.3327 58.1278 76.6282 58.3965L75.0829 58.4861C74.3105 58.3069 73.8407 57.7221 73.5724 56.8205C73.4714 56.4608 73.5724 56.1906 73.8407 56.1461C74.2437 56.0551 75.1845 55.6523 76.6613 54.8848C77.6352 54.434 78.4412 53.9402 79.0789 53.3998C79.5819 52.9046 79.7166 52.2746 79.4482 51.4641C78.9773 50.1131 78.3397 49.0324 77.5336 48.3121C76.5272 47.3654 75.3518 47.0952 74.0091 47.4549ZM76.4267 51.4175C76.5945 52.0474 76.5945 52.4982 76.3935 52.7684C76.2588 52.992 75.9905 53.2178 75.5533 53.3984L74.7141 53.8026L73.7744 54.0728C73.5729 54.0728 73.4051 53.8936 73.3035 53.5324C73.1699 53.0372 73.1699 52.3176 73.3377 51.4175C73.5382 50.4263 73.8407 49.7963 74.3105 49.6165C75.386 49.2115 76.0905 49.7971 76.4267 51.4175ZM53.3242 47.4549C52.1488 47.7251 51.2081 48.5357 50.4368 49.7505C49.6981 51.0118 49.2945 52.4524 49.2945 54.0283C49.2945 55.9197 49.7312 57.4957 50.5036 58.7556C51.2428 59.8808 52.1825 60.6483 53.3578 61.0081C54.4322 61.3679 55.5071 61.2331 56.6151 60.6025C57.7237 60.0177 58.5297 59.1605 59.0327 57.9472C59.1337 57.6325 59.0658 57.3158 58.8649 56.956C58.6302 56.5962 58.3619 56.4608 57.9589 56.5052C57.3212 57.4512 56.6488 58.1278 55.9107 58.3965L54.3654 58.4861C53.5941 58.3069 53.1232 57.7221 52.8538 56.8205C52.7533 56.4608 52.8538 56.2357 53.1563 56.1461C53.5257 56.0551 54.4664 55.6523 55.9769 54.8848C56.9177 54.434 57.7237 53.9402 58.3614 53.3998C58.898 52.9046 58.999 52.2746 58.7644 51.4641C58.2946 50.1131 57.6558 49.0324 56.8509 48.3121C55.8096 47.3654 54.6342 47.0952 53.3242 47.4549ZM55.7417 51.4175C55.8754 52.0023 55.8754 52.4516 55.7086 52.7684C55.5739 52.992 55.2725 53.2178 54.8358 53.3984L53.9955 53.8026L53.0558 54.0728C52.8533 54.0728 52.6865 53.8936 52.6197 53.5324C52.4519 53.0372 52.485 52.3176 52.6528 51.4175C52.8196 50.4263 53.1558 49.7963 53.6256 49.6165C54.7 49.2115 55.4055 49.7971 55.7417 51.4175ZM15.1443 43.0882L14.7749 42.9979H10.2081L9.9061 43.0423C9.80561 43.1326 9.77194 43.3577 9.70459 43.8078C9.67145 44.2578 9.70459 44.4829 9.80508 44.528C10.0066 44.7086 10.2076 44.8434 10.4427 44.9329C10.779 45.1135 10.9468 45.7887 10.9468 46.959V56.8184C10.9468 57.4942 10.8794 58.0346 10.7453 58.3048C10.7101 58.4226 10.6556 58.5283 10.5859 58.614C10.5161 58.6997 10.4328 58.7633 10.3423 58.8L9.73827 59.2508C9.67145 59.3855 9.67145 59.7002 9.70459 60.151C9.7714 60.6003 9.80508 60.8254 9.9061 60.8719L10.2754 60.9601H14.9428L15.3453 60.8719C15.4457 60.8719 15.4794 60.6469 15.5468 60.151C15.5804 59.7002 15.5468 59.3855 15.4799 59.2508L14.9091 58.8C14.7076 58.7104 14.5397 58.5298 14.4724 58.3048C14.3719 58.0346 14.3046 57.4942 14.3046 56.8184L14.3382 52.8559C14.3382 52.6323 14.4387 52.4975 14.6066 52.4975H17.1925C17.3603 52.4975 17.4614 52.6323 17.4614 52.8559L17.4945 56.8184C17.4945 57.4942 17.4277 57.9902 17.2935 58.3048C17.2262 58.484 17.092 58.6646 16.8568 58.8L16.2186 59.2508L16.2523 60.1044C16.286 60.5996 16.3533 60.8254 16.4201 60.8712L16.689 60.9157H21.5915L21.8935 60.8712C21.9603 60.8254 22.0277 60.5996 22.095 60.1502C22.1282 59.6994 22.095 59.3848 22.0282 59.2501L21.4573 58.7993C21.2558 58.7097 21.088 58.5291 21.0212 58.3041C20.9207 58.0339 20.8534 57.4935 20.8534 56.8177V46.9597C20.8534 45.7894 21.0212 45.1143 21.2895 44.9337L21.9272 44.5287C22.0619 44.4843 22.095 44.2585 22.0619 43.8536C21.9945 43.3591 21.9609 43.0889 21.894 43.0431H16.6559C16.5885 43.0882 16.5217 43.3584 16.488 43.8085C16.4544 44.2585 16.5217 44.5287 16.5885 44.5287L17.0926 44.9337C17.3609 45.1143 17.495 45.7894 17.495 46.9597L17.4619 49.3914C17.4619 49.6616 17.3614 49.7971 17.193 49.7971H14.6076C14.4398 49.7971 14.3393 49.6616 14.3393 49.3914L14.3056 46.9597C14.3056 45.7894 14.4398 45.1143 14.675 44.9337C14.876 44.8441 15.0443 44.7093 15.179 44.5287C15.2795 44.4843 15.3126 44.2585 15.2795 43.8085L15.1443 43.0882ZM32.7734 49.6165L32.9749 49.7963C33.2096 49.9755 33.3106 50.5159 33.3106 51.3709V57.09C33.3106 58.0798 33.1091 58.6646 32.7729 58.8452L32.5046 59.0702C32.3036 59.1584 32.2026 59.3848 32.2694 59.655L32.303 60.51C32.3699 60.7802 32.504 60.9157 32.7729 60.9157H37.0377C37.2724 60.9157 37.4071 60.7802 37.4744 60.51L37.5412 59.655C37.5749 59.3848 37.5081 59.1584 37.3066 59.0702L37.0383 58.8452C36.6689 58.6201 36.4674 58.0346 36.4674 57.09V48.3558C36.4674 48.0405 36.3664 47.9057 36.1317 47.9057H32.8744C32.6398 47.9057 32.5388 48.0405 32.5051 48.2662L32.4714 48.6712V49.1212C32.4377 49.3011 32.5719 49.481 32.7734 49.6165ZM33.4116 46.4645C33.7473 46.9146 34.1503 47.0945 34.6201 47.0945C35.0905 47.0945 35.5267 46.9146 35.8629 46.4645C36.198 46.0596 36.3658 45.5192 36.3658 44.8885C36.3658 44.303 36.198 43.7633 35.8629 43.3125C35.5267 42.8624 35.0905 42.6826 34.6201 42.6826C34.1503 42.6826 33.7473 42.8624 33.4116 43.3125C33.0759 43.7174 32.9081 44.2578 32.9081 44.8885C32.9076 45.5192 33.0754 46.0596 33.4116 46.4645ZM38.8513 47.7251C38.6835 47.7251 38.5493 47.8606 38.5156 48.1301L38.4483 48.9858C38.4483 49.1205 38.5488 49.3004 38.784 49.4803L39.0186 49.6602C39.2201 49.8401 39.3543 50.336 39.3543 51.2362V57.09C39.3543 58.0346 39.1533 58.6201 38.7834 58.8452L38.5151 59.0702C38.3136 59.1584 38.2462 59.3848 38.2799 59.655L38.3136 60.51C38.3804 60.7802 38.5482 60.9157 38.7497 60.9157H43.0146C43.2492 60.9157 43.3839 60.7802 43.4507 60.51L43.5176 59.655C43.5512 59.3848 43.4844 59.1584 43.2487 59.0702C43.1819 58.9792 43.0809 58.9348 43.014 58.8452C42.6447 58.6201 42.4432 58.0346 42.4432 57.09V52.4509C42.4432 51.1466 42.8462 50.4256 43.6523 50.2894C43.9206 50.2457 44.0884 50.3353 44.2899 50.5596C44.5251 50.8298 44.6593 51.1459 44.6593 51.6418V58.3944C44.6593 59.2945 44.8944 59.9718 45.3643 60.4663C45.7668 60.8719 46.2708 61.0511 46.808 61.0511C47.9166 61.0511 48.6889 60.5107 49.0914 59.3404C49.1582 59.1154 49.1251 58.8452 48.9236 58.5298C48.7557 58.3048 48.5879 58.2138 48.4201 58.3048L47.9502 58.6646C47.7824 58.7541 47.715 58.575 47.715 58.1256L47.6814 51.1466C47.6814 49.2101 47.111 48.0398 46.0025 47.5438C45.2638 47.2292 44.2562 47.4542 43.0477 48.2196L42.5442 48.535L42.4432 48.2648C42.309 47.9043 42.1749 47.7244 42.0065 47.7244L38.8513 47.7251ZM80.6915 47.7251C80.5237 47.7251 80.389 47.8606 80.3222 48.1301L80.289 48.9858C80.289 49.1205 80.3895 49.3004 80.6252 49.4803L80.8257 49.6602C81.0951 49.8401 81.195 50.3804 81.195 51.2362V57.09C81.195 58.0346 80.9935 58.6201 80.6252 58.8452L80.3558 59.0702C80.1543 59.1584 80.0533 59.3848 80.1212 59.655V60.0592L80.1543 60.51C80.2211 60.7802 80.3558 60.9157 80.5905 60.9157H84.8553C85.091 60.9157 85.2247 60.7802 85.2925 60.51L85.3594 59.655C85.3925 59.3848 85.2925 59.1584 85.091 59.0702L84.8553 58.8452C84.4534 58.6201 84.2855 58.0346 84.2855 57.09V52.4509C84.2855 51.1466 84.6886 50.4256 85.4946 50.2894C85.7292 50.2457 85.9297 50.3353 86.1323 50.5596C86.3669 50.8298 86.4674 51.1459 86.4674 51.6418V58.3944C86.4674 59.2508 86.7031 59.9718 87.2066 60.4663C87.6096 60.8719 88.1126 61.0511 88.6503 61.0511C89.7926 61.0511 90.5318 60.5107 90.9001 59.3404C90.9669 59.1154 90.9669 58.8452 90.7654 58.5298C90.5986 58.3048 90.4302 58.2138 90.2624 58.3048L89.7926 58.6646C89.6247 58.7541 89.5232 58.575 89.5232 58.1256V51.1473C89.5232 49.2108 88.9523 48.0405 87.8443 47.5445C87.0719 47.2299 86.0986 47.4549 84.889 48.2204L84.386 48.5357L84.2513 48.2655C84.1508 47.905 84.0167 47.7251 83.8494 47.7251H80.6915ZM63.5317 43.9884C63.4985 43.3132 63.2633 42.9979 62.7935 42.9979H59.8045C59.5688 42.9979 59.4352 43.1326 59.4015 43.3584L59.3684 44.1231C59.3352 44.303 59.4694 44.4836 59.6698 44.6183L60.0061 44.8885C60.3086 45.0684 60.4422 45.6088 60.4422 46.4645V57.0907C60.4422 58.0805 60.2754 58.6653 59.9045 58.8459L59.6372 59.0709C59.4347 59.1591 59.3679 59.3855 59.4015 59.6557L59.4694 60.5107C59.5025 60.7809 59.6698 60.9164 59.9045 60.9164H64.1357C64.3714 60.9164 64.505 60.7809 64.5718 60.5107L64.6397 59.6557C64.6728 59.3855 64.6055 59.1591 64.404 59.0709L64.1357 58.8459C63.7326 58.6208 63.5311 57.9457 63.5311 56.774V56.0085L64.404 55.064L66.6548 60.5566C66.7553 60.8268 66.8894 60.9178 67.091 60.9178H69.7769C70.0115 60.9178 70.1799 60.7824 70.2467 60.5122L70.2798 59.6572C70.3477 59.387 70.2467 59.1605 70.0457 59.0724L69.5748 58.8022C69.3054 58.6216 69.0718 58.3069 68.9035 57.9006L66.5527 52.1377L67.9964 50.2916L68.6341 49.572C68.9035 49.347 69.1718 49.1664 69.4064 49.1219C69.5411 49.0775 69.6079 48.7615 69.5743 48.1766C69.5411 47.7266 69.4738 47.5015 69.3396 47.5015L69.0713 47.4564L67.3245 47.5015L65.4099 47.4564L65.1416 47.5015C65.008 47.5015 64.9401 47.7266 64.907 48.1766C64.8738 48.717 64.907 48.9872 65.008 49.0316L65.3773 49.2567C65.6114 49.4817 65.6456 49.7068 65.4778 49.9318L64.5039 51.2827L63.5301 52.3635V43.9884H63.5317ZM88.3136 42.2776C87.9442 42.7721 87.7769 43.3584 87.7769 44.0787C87.7769 44.7538 87.9437 45.3845 88.3136 45.8797C88.684 46.3749 89.1196 46.6451 89.6915 46.6451C90.1945 46.6451 90.6312 46.3749 91.0342 45.8797C91.4036 45.3845 91.5719 44.7545 91.5719 44.0787C91.5719 43.3584 91.4041 42.7729 91.0342 42.2776C90.6312 41.7824 90.195 41.5574 89.6915 41.5574C89.1191 41.5574 88.684 41.7824 88.3136 42.2776ZM89.6915 42.0526C90.0935 42.0526 90.4297 42.2776 90.7312 42.6833C91.0337 43.0431 91.1684 43.4938 91.1684 44.0787C91.1684 44.619 91.0337 45.1143 90.7312 45.4748C90.4297 45.8797 90.0935 46.1047 89.6915 46.1047C89.2543 46.1047 88.9192 45.8797 88.6161 45.4748C88.3136 45.115 88.18 44.619 88.18 44.0787C88.18 43.4938 88.3136 43.0431 88.6161 42.6833C88.9186 42.2776 89.2538 42.0526 89.6915 42.0526Z" fill="white"/>
<path fill-rule="evenodd" clip-rule="evenodd" d="M89.3552 44.2134L89.522 44.2578C89.7566 44.2578 89.925 44.3481 89.9581 44.6183L90.126 45.2934H90.63L90.4622 44.6183C90.4489 44.5016 90.4184 44.3897 90.3723 44.2891C90.3262 44.1885 90.2655 44.1014 90.1939 44.0328C90.3954 43.9432 90.4953 43.673 90.4953 43.3125C90.4953 43.0875 90.4285 42.8625 90.2607 42.727L89.8913 42.5471H88.8838V45.2942H89.3547L89.3552 44.2134ZM89.3552 43.673V43.0423H89.6914C89.8919 43.0423 89.9929 43.1778 89.9929 43.3577C89.9929 43.5827 89.925 43.6723 89.7246 43.6723L89.3552 43.673Z" fill="white"/>
<path fill-rule="evenodd" clip-rule="evenodd" d="M50.1337 26.3839L50.0332 26.2492L42.6121 33.588H42.7799L50.1337 26.3839ZM63.8678 12.8773H63.7L55.6418 20.7558L58.6628 33.2275H58.7975L55.7754 20.8461L63.8678 12.8773ZM50.7382 0H50.6046L53.5256 11.9765H53.6603L50.7382 0Z" fill="black"/>
</svg>
