<svg width="100" height="100" viewBox="0 0 100 100" fill="none" xmlns="http://www.w3.org/2000/svg">
<path d="M85.4804 52.9146C85.456 50.9752 84.9423 49.0602 84.1416 47.2614C83.5239 45.8688 82.8066 44.5128 82.1061 43.1517C76.5321 32.4199 70.6827 21.8013 64.5625 11.3043C63.7017 9.83761 62.8591 8.36202 61.95 6.91798C61.0566 5.50937 60.0167 4.15334 58.6703 3.0508C56.5221 1.24146 53.6396 0.162724 50.6813 0H49.3193C46.2739 0.132836 43.3012 1.26194 41.116 3.14378C39.8192 4.22916 38.8156 5.55254 37.946 6.92186C37.0488 8.3421 36.2181 9.79444 35.3736 11.2379C31.2669 18.2806 27.2811 25.3778 23.4176 32.5271C21.1147 36.8055 18.8311 41.0911 16.6346 45.4116C15.7237 47.2115 14.8999 49.0729 14.5897 51.0378C14.0152 54.3554 14.8391 57.8373 16.8451 60.6861C18.5742 63.1607 21.1698 65.1549 24.1951 66.3067C26.5601 67.2085 29.1307 67.6105 31.7024 67.4807C35.1374 67.3196 38.4497 66.2292 41.356 64.638C44.5981 62.8801 47.3709 60.5422 49.9527 58.0947C52.3534 60.3806 54.9227 62.5618 57.8885 64.2716C60.7528 65.9364 64.0187 67.1419 67.4538 67.4286C71.1845 67.7729 75.05 66.9559 78.1812 65.1211C80.9506 63.4999 83.0953 61.1717 84.3296 58.4467C85.1243 56.6883 85.5155 54.8078 85.4804 52.9146ZM49.9684 51.635C49.0318 50.6609 48.2067 49.607 47.3778 48.5609C45.9832 46.7538 44.7152 44.8648 43.6953 42.8689C42.8596 41.2129 42.1886 39.4744 41.9267 37.6689C41.7356 36.2365 41.7814 34.7421 42.3765 33.3822C42.9091 32.107 43.9327 31.0022 45.2296 30.2722C48.3194 28.5105 52.7237 28.7009 55.5235 30.8379C56.9406 31.9044 57.787 33.4813 58 35.1019C58.2788 37.256 57.7243 39.4196 56.8729 41.4288C55.2654 45.157 52.7205 48.4989 49.9684 51.635ZM80.2862 56.204C79.4605 58.7218 77.4757 60.9213 74.8789 62.1905C72.5772 63.3279 69.83 63.7175 67.2351 63.3345C63.9304 62.8801 60.9652 61.3309 58.3959 59.5022C56.5077 58.1617 54.8074 56.6296 53.1785 55.0505C55.7503 52.1768 58.1729 49.1703 60.0236 45.8837C61.6387 43.0056 62.8659 39.8873 62.9825 36.6511C63.0483 34.5977 62.611 32.5066 61.5253 30.6785C60.1037 28.2359 57.5571 26.3596 54.6376 25.4519C51.9105 24.5913 48.8789 24.5143 46.0966 25.215C43.4729 25.8709 41.0766 27.264 39.4345 29.1951C37.9892 30.8788 37.1654 32.9488 36.9743 35.0482C36.6805 38.0719 37.5381 41.0884 38.8356 43.868C40.7646 47.9294 43.5957 51.6057 46.7225 55.0157C45.3126 56.4543 43.7826 57.7974 42.1454 59.0339C39.6068 60.9318 36.7024 62.584 33.4121 63.2127C30.752 63.7402 27.882 63.4779 25.4425 62.3875C22.585 61.1294 20.3911 58.76 19.5635 56.0363C18.9307 54.0354 19.071 51.8752 19.8235 49.9153C20.4493 48.2936 21.2982 46.7483 22.0926 45.188C27.607 34.5718 33.3907 24.0664 39.4395 13.6799C40.3417 12.134 41.2301 10.5809 42.1848 9.06052C42.9642 7.83566 43.8707 6.63294 45.1519 5.77283C46.5372 4.8194 48.2508 4.31475 50.0066 4.34318C51.8109 4.32436 53.6045 4.91161 54.9847 5.93611C56.3479 6.93625 57.2689 8.30446 58.0958 9.66824C59.9653 12.7705 61.7608 15.9088 63.557 19.0437C68.6832 28.0072 73.6088 37.0591 78.3309 46.1942C79.0445 47.6134 79.8082 49.0214 80.2887 50.5192C80.8757 52.3661 80.8951 54.3609 80.2862 56.204ZM23.2172 75.8488C24.7608 75.5399 26.4474 76.4393 26.8483 77.7931C27.3464 79.1785 26.3565 80.7892 24.7803 81.1899C23.2403 81.6681 21.4116 80.8367 20.9016 79.4785C20.418 78.3339 20.9355 76.9524 22.0845 76.2755C22.4271 76.0696 22.8118 75.9246 23.2172 75.8488ZM33.6432 84.7914C34.5729 83.8986 35.8829 83.339 37.2324 83.1608C38.1327 83.0831 39.0412 83.1339 39.9232 83.3114C39.9119 84.5683 39.9207 85.8236 39.9182 87.0811C38.5343 86.7651 37.0357 86.6998 35.6775 87.1415C34.9397 87.3788 34.2747 87.7648 33.7353 88.2689C33.6188 88.3569 33.647 88.4992 33.6363 88.6215C33.6445 92.1333 33.6301 95.6457 33.642 99.157C33.6282 99.2921 33.6652 99.4443 33.5975 99.571C32.0626 99.6026 30.5258 99.5771 28.9903 99.5821C28.9909 94.2283 28.9853 88.8733 28.994 83.5195C30.2871 83.5245 31.5808 83.5151 32.8745 83.5217C33.159 83.5073 33.4622 83.6363 33.5662 83.8815C33.6683 84.1748 33.6357 84.4875 33.6432 84.7914ZM66.7395 84.8058C67.9681 83.6828 69.7486 83.1304 71.4959 83.1271C73.3421 83.0861 75.2341 83.5682 76.6607 84.6264C77.6093 85.2838 78.2935 86.1933 78.6122 87.2206C79.0182 88.472 78.9818 89.7866 78.9768 91.0756C78.9781 93.9117 78.9768 96.7483 78.9781 99.5849C77.43 99.5827 75.8826 99.5937 74.3345 99.5788C74.3358 96.7444 74.3345 93.91 74.3358 91.0745C74.3358 90.0212 74.3921 88.8849 73.7581 87.9468C73.3165 87.2738 72.4425 86.9383 71.5999 86.8603C69.9948 86.6334 68.3183 87.1974 67.2119 88.2313C67.0941 88.3353 66.9933 88.4671 67.0064 88.6243C66.9914 89.0626 67.0666 89.5026 67.024 89.9415C66.9632 90.5377 67.0578 91.1337 67.0359 91.7315C67.016 92.8585 67.0144 93.9857 67.0309 95.1127C66.9432 96.6033 67.096 98.0988 66.9952 99.5876C65.4534 99.5832 63.9128 99.5865 62.371 99.586C62.3704 94.2294 62.3597 88.8739 62.3767 83.5178C63.5689 83.5261 64.7636 83.5178 65.9552 83.5211C66.2634 83.504 66.6005 83.6562 66.68 83.9329C66.7527 84.2174 66.7308 84.5135 66.7395 84.8058ZM21.5194 99.5854C21.5187 94.2294 21.51 88.8739 21.5225 83.5184C23.0587 83.5217 24.5942 83.5206 26.1297 83.5195C26.1416 88.875 26.1329 94.2305 26.1341 99.5849C24.5961 99.5849 23.058 99.5838 21.5194 99.5854ZM18.6582 83.52C17.4409 83.5178 16.2236 83.5234 15.0051 83.5139C14.6831 83.5123 14.2721 83.5261 14.1149 83.825C13.9739 84.1322 14.0278 84.4731 14.0152 84.7964C13.0022 83.8438 11.5744 83.2782 10.1097 83.1553C7.84806 82.976 5.50436 83.53 3.68816 84.7432C2.19209 85.7196 1.08634 87.1315 0.507458 88.6868C0.228669 89.4157 0.0889618 90.1807 0 90.945V92.0448C0.129684 94.3467 1.28869 96.6237 3.31038 98.1076C4.83526 99.2489 6.79493 99.8865 8.78028 99.9978H9.81525C11.389 99.9042 12.9427 99.3292 14.0165 98.2931C14.0265 98.618 13.9745 98.9622 14.1124 99.2733C14.2558 99.5251 14.5941 99.5943 14.888 99.5843C16.1441 99.5816 17.4021 99.5854 18.6594 99.5793C18.6594 94.2277 18.6632 88.8739 18.6582 83.52ZM13.873 94.5803C12.9333 95.5743 11.4654 96.1621 9.99944 96.1212C8.42819 96.1317 6.79744 95.5998 5.77939 94.5111C4.7864 93.4717 4.48631 92.026 4.71184 90.7048C4.88037 89.6355 5.49747 88.6099 6.47229 87.9462C7.35627 87.3297 8.4708 87.012 9.58658 86.9433C11.2487 86.8149 13.001 87.4625 14.0008 88.6481C14.0572 90.3937 14.0021 92.1439 14.0272 93.8923C14.0109 94.1226 14.0829 94.3998 13.873 94.5803ZM59.7172 88.1156C59.0017 86.5697 57.7325 85.2259 56.1236 84.3492C54.4666 83.4381 52.4793 83.0263 50.5366 83.1431C49.0023 83.2322 47.5031 83.8106 46.4381 84.7991C46.4318 81.7987 46.4381 78.7999 46.4349 75.7995C44.8863 75.8001 43.3363 75.7934 41.7876 75.8034C41.7958 83.7281 41.7745 91.6568 41.7989 99.581C43.0813 99.5838 44.365 99.5865 45.6481 99.5838C45.967 99.6059 46.3109 99.4509 46.3986 99.1659C46.4619 98.8759 46.4387 98.5764 46.4406 98.2825C47.5169 99.3402 49.0982 99.9142 50.6882 99.9989H51.6367C54.211 99.8849 56.7351 98.8189 58.3508 97.0317C60.6137 94.5803 61.0554 91.017 59.7172 88.1156ZM54.3012 94.8758C53.2637 95.7265 51.8278 96.1345 50.4257 96.1223C48.9628 96.1522 47.5012 95.5583 46.5747 94.5582C46.46 94.4541 46.4224 94.3135 46.4318 94.1751C46.4331 92.3365 46.4349 90.4984 46.4318 88.6608C47.3214 87.6357 48.7454 86.997 50.202 86.9312C51.6787 86.893 53.228 87.276 54.3118 88.1959C55.3443 89.0421 55.848 90.3113 55.8154 91.5406C55.8455 92.7682 55.328 94.029 54.3012 94.8758ZM97.9288 86.1275C95.9591 83.9113 92.5917 82.7933 89.4524 83.2079C88.1411 83.3905 86.8988 83.9462 85.9822 84.7986C85.9722 81.7998 85.9822 78.801 85.9772 75.8012C84.431 75.7995 82.8861 75.7984 81.3412 75.8023C81.3399 83.7276 81.3412 91.6551 81.3412 99.5816C82.5597 99.5899 83.7814 99.5799 84.9999 99.5899C85.32 99.5943 85.7204 99.5716 85.8845 99.2827C86.0267 98.9705 85.9735 98.6224 85.9835 98.2942C87.0517 99.3281 88.5985 99.8993 90.1635 100H91.2072C93.7533 99.8777 96.2423 98.8277 97.8549 97.0676C99.1718 95.664 99.8822 93.8663 100 92.0559V90.9815C99.854 89.2336 99.1862 87.4979 97.9288 86.1275ZM94.3102 94.4142C93.0842 95.8085 90.9209 96.3271 89.0019 96.0564C87.8335 95.8505 86.7002 95.2932 86.0092 94.4231C85.9321 93.7484 86.0017 93.066 85.9785 92.3879C85.9948 91.1409 85.9434 89.8901 86.0017 88.6453C86.7046 87.7891 87.8298 87.24 88.9875 87.0131C91.1301 86.6633 93.6211 87.4132 94.7043 89.1611C95.6904 90.779 95.592 92.9409 94.3102 94.4142Z" fill="black"/>
</svg>
