<svg width="100" height="100" viewBox="0 0 100 100" fill="none" xmlns="http://www.w3.org/2000/svg">
<path d="M55.1753 8.70224C63.2348 0.0422192 74.4396 0 74.4396 0C74.4396 0 76.1062 8.1419 68.0995 15.9851C59.5502 24.36 49.8328 22.9896 49.8328 22.9896C49.8328 22.9896 48.0082 16.4031 55.1753 8.70224ZM50.8579 28.6929C55.0042 28.6929 62.6994 24.0465 72.7158 24.0465C89.9574 24.0465 96.7402 34.0482 96.7402 34.0482C96.7402 34.0482 83.4742 39.5776 83.4742 52.9944C83.4742 68.1298 100 73.3459 100 73.3459C100 73.3459 88.4479 99.8531 72.8442 99.8531C65.6775 99.8531 60.1058 95.9159 52.5546 95.9159C44.8594 95.9159 37.223 100 32.2493 100C18.0008 100 0 74.8554 0 54.6431C0 34.7571 15.2365 24.3251 29.5278 24.3251C38.8183 24.3251 46.0279 28.6929 50.8579 28.6929Z" fill="black"/>
</svg>
