<svg width="100" height="100" viewBox="0 0 100 100" fill="none" xmlns="http://www.w3.org/2000/svg">
<path d="M47.3541 0C47.3541 0 47.2961 0.587503 47.047 0.945839C46.8616 1.25834 46.3634 1.47918 46.4272 1.70418C46.4851 1.92918 46.7979 2.20001 47.2961 2.37918C47.7943 2.55835 47.9739 2.68752 48.4721 2.77918C48.9066 2.86668 49.5381 3.09585 49.6597 2.82502C49.8509 2.55835 49.6018 2.19585 49.289 1.88334C48.7908 1.30001 48.5359 1.16667 47.8523 0.362502C47.7248 0.183334 47.6032 0 47.3541 0ZM51.2818 0C51.1544 0.0458336 50.969 0.725004 50.6561 1.30417C50.2854 1.97501 50.5287 2.28751 50.7141 2.55418C50.9632 2.82502 51.2818 3.00418 50.6561 3.27502C50.0363 3.54169 49.2194 3.45419 49.2194 3.45419C49.2194 3.45419 48.5359 3.35835 47.9739 3.13752C47.3963 2.95411 46.817 2.77354 46.236 2.59585C46.236 2.59585 45.1121 2.37501 44.3648 2.42085C43.6175 2.46251 43.5537 2.51251 42.9976 2.55835C42.6848 2.55835 42.5631 2.55418 42.2503 2.60001C42.0012 2.64168 41.6941 2.51668 41.6941 2.73752C41.6941 2.95835 42.314 2.96252 42.7485 3.09585C43.183 3.22918 44.1794 3.22502 43.994 3.40419C43.7449 3.58335 42.8122 3.62919 42.7485 3.58335C42.6906 3.58335 42.0707 3.49585 41.5725 3.49585C40.7614 3.53752 40.7035 3.53752 39.5275 3.94169C39.3363 3.98336 39.4001 4.30002 39.7708 4.20836C40.338 4.0919 40.9247 4.03162 41.5146 4.02919C42.2677 4.02919 42.6906 4.21252 43.4379 4.35002C44.0635 4.48336 44.1215 4.56669 45.06 4.65836C45.2453 4.65836 45.6103 4.56669 45.6103 4.74586C45.6103 4.83753 45.3612 4.97503 45.3612 4.97503C45.3612 4.97503 44.8051 5.05836 44.863 5.19586C44.9904 5.37503 45.4887 5.19586 45.732 5.19586C45.9869 5.19586 46.3692 5.24586 46.2997 5.42086L46.178 5.5542C45.6043 5.66193 45.0411 5.79695 44.4922 5.95837C42.9339 6.40837 42.3198 6.94587 40.8252 7.48338C39.3943 7.97505 37.0944 8.59588 37.0944 8.59588C37.0944 8.59588 36.4108 8.86672 35.4144 9.04172C34.4237 9.22505 34.36 9.18338 33.6764 9.27089C33.1215 9.29391 32.5835 9.41715 32.1123 9.62922C31.7834 9.75191 31.4888 9.91717 31.2433 10.1167L30.3743 11.0626L29.8703 11.5917C29.7487 11.7709 29.627 11.8584 29.5691 12.0376C29.4416 12.2626 29.3779 12.3542 29.32 12.5792C29.1346 13.1126 29.32 13.4292 29.4416 13.9667C29.5054 14.1001 29.5054 14.1917 29.5691 14.3251C29.627 14.4584 29.8703 14.5959 29.8703 14.5959L30.1194 14.6376C30.1194 14.6376 31 14.5959 31.5561 14.5042C32.1181 14.4167 32.9291 14.2751 32.9291 14.2751L33.9777 14.0584L34.6729 13.8792C34.6729 13.8792 35.1073 13.8792 35.1711 14.0584C35.229 14.1917 35.0436 14.4167 35.0436 14.4167C35.0436 14.4167 34.6671 14.5417 34.3542 14.6334C34.0414 14.7251 33.2941 14.8584 33.2362 14.9043L32.4251 15.0834L31.7415 15.1293C31.7415 15.1293 31.6141 15.1751 31.4924 15.3084C31.365 15.4459 31.365 15.4418 31.365 15.5293C31.4924 15.6209 31.5561 15.7084 31.6836 15.8001C31.9327 15.9334 32.0544 16.0209 32.3614 16.0668C32.7959 16.2001 33.045 16.1584 33.4795 16.1584C34.0235 16.1594 34.5599 16.0666 35.0436 15.8876C35.5418 15.6626 35.7272 15.6668 36.4108 15.4876C36.6335 15.4404 36.8627 15.411 37.0944 15.4001C38.2762 15.3084 38.9482 15.4418 40.1358 15.5793C41.3176 15.7126 41.8853 15.9834 43.0671 16.1168C44.3126 16.2501 45.0542 16.5168 46.3576 16.2959C46.9833 16.2043 47.3598 15.9793 47.6727 16.4251C47.9797 16.8293 47.9218 17.0501 47.9218 17.0501C47.9218 17.0501 47.916 17.3251 47.4815 18.1751C47.0412 19.0251 45.6798 21.1293 45.6798 21.1293L44.7413 22.471C44.7413 22.471 43.9882 23.5418 42.2503 24.9293C41.6353 25.4215 41.0174 25.9118 40.3965 26.4002C40.3965 26.4002 39.4638 26.896 38.5311 27.746C37.5984 28.596 37.5868 28.9085 36.7178 29.5377C36.1559 29.9377 35.8489 30.1627 35.1653 30.4793C34.4817 30.7918 33.6706 30.7002 31.4924 31.771C29.627 32.7127 28.6306 33.4794 28.5031 33.4335C28.3815 33.3919 27.7558 33.0252 27.5067 32.9335C27.3213 32.8502 23.718 31.1043 23.718 31.1043L22.2234 30.3877L21.534 30.071L21.4123 29.8918L21.0474 29.5335C21.0474 29.5335 20.4854 29.0418 19.8018 28.6418C19.0935 28.1491 18.2092 27.8073 17.2471 27.6543C16.1869 27.4335 15.5091 27.296 14.4548 27.5668C13.858 27.7075 13.3201 27.954 12.8906 28.2835C12.2708 28.7293 12.1433 29.0877 11.6451 29.6252C11.1469 30.1627 10.6487 30.6585 10.3996 30.9252C10.1505 31.196 9.65225 31.9127 9.65225 31.9127C9.65225 31.9127 8.41252 33.3419 7.72893 34.2794C6.91789 35.3085 6.61085 35.9419 5.86354 36.9252C4.68174 38.4919 2.99593 40.1002 2.56145 40.8127L2.07482 41.6211C2.07482 41.6211 1.94158 42.0169 1.88365 42.2877C1.81992 42.5544 1.81992 43.0044 1.7562 43.1836C1.7035 43.3626 1.59887 43.5315 1.44916 43.6794C1.39123 43.7211 0.701845 44.7503 0.45274 45.4211C0.203634 46.0878 -0.3583 48.1961 0.331084 48.4628C1.01468 48.7336 6.04892 47.1711 6.73251 45.6461C7.17279 44.6628 5.36533 44.1669 5.86354 43.2711C6.04892 42.9586 6.17637 42.9169 6.4834 42.6044C6.98161 42.0211 6.79623 40.8169 7.72893 39.7002C8.41252 38.8961 9.77971 37.8585 11.6451 36.3377C12.8269 35.4002 13.9508 33.8794 13.9508 33.8794C13.9508 33.8794 14.1999 33.3419 14.7039 33.4335C15.26 33.521 15.7524 33.4752 15.7524 33.4752L16.0015 33.6127L16.4998 33.971L17.2471 34.7752C17.2471 34.7752 18.4984 36.0669 18.9271 36.4294C19.3674 36.7877 19.8018 37.0544 20.4275 37.4127C21.1111 37.8585 21.3544 38.0835 22.2234 38.5794C23.4689 39.2919 23.0286 39.5627 21.4123 38.9336C20.74 38.6882 20.0331 38.4954 19.3036 38.3586C18.5621 38.2211 15.7582 37.6835 14.3273 37.5502C12.9601 37.4169 12.7052 37.4627 12.7052 37.4627C12.7052 37.4627 12.0217 37.4127 11.2164 37.771C10.4054 38.1294 9.97088 38.3961 9.97088 38.3961C9.97088 38.3961 9.03818 39.1586 8.97446 39.2919C8.91653 39.4252 8.47624 39.9586 8.47624 39.9586C8.47624 39.9586 8.22135 40.2336 8.16342 40.5419C8.03597 40.8586 8.10549 41.1711 8.10549 41.1711L8.16342 41.8377L8.22714 42.4627C8.22714 42.4627 8.41831 44.0336 8.8528 45.6003C8.97446 46.0461 9.10191 46.7628 9.10191 46.7628L9.40315 48.3753C9.40315 48.3753 9.59433 50.0795 9.77971 50.6586C9.96509 51.2003 10.0925 51.242 10.22 51.5961C10.4691 52.267 10.0346 52.5795 10.4691 53.3878C10.9036 54.192 11.2801 54.0961 11.7146 54.592C12.0274 54.9503 12.1433 55.0378 12.3924 55.4878C12.6415 55.9337 13.4526 57.417 14.3853 58.4878C15.3817 59.6087 16.6909 60.992 17.5657 60.8587C18.4347 60.7212 19.0545 59.742 19.0545 59.742C19.0545 59.742 20.051 57.8128 19.4311 55.9337C18.8054 54.0086 15.9436 54.9128 15.5729 53.5253C15.5149 53.2128 15.5729 52.7211 15.5729 52.7211C15.5729 52.7211 15.5033 52.1336 15.3817 51.9545C15.2542 51.7753 14.2578 50.4378 13.887 49.3169C13.5742 48.4669 13.6379 45.7336 13.3888 44.9711C12.7052 43.0044 12.6415 43.1794 13.0123 42.8252C13.4526 42.4669 13.8291 42.5544 13.8291 42.5544L14.3853 42.6044L14.8255 42.7336L15.6308 43.0919C15.8799 43.2252 16.7489 43.7169 16.7489 43.7169L18.8634 44.7044C18.8634 44.7044 20.051 45.2003 20.5492 45.3794C21.0474 45.5586 21.4761 45.7794 21.4761 45.7794L22.0322 46.0461L22.9707 46.5461L23.1503 46.6711L23.2777 46.8503C23.2777 46.8503 23.718 47.5711 25.5834 48.3336C27.078 48.9586 28.3873 48.7753 28.9434 49.2711C29.0709 49.3586 30.1194 50.3961 30.6234 51.0211C31.2433 51.7336 31.9906 52.5795 32.2397 52.8503C32.4888 53.117 34.0472 54.5003 34.0472 54.5003L36.098 56.1128L38.7802 57.9045L41.2017 59.3837L42.7485 60.2795C42.7485 60.2795 44.1215 61.2212 45.6798 61.9795C47.1745 62.6962 47.2324 62.7837 48.2288 63.2712C48.9703 63.6337 49.9668 64.1295 50.9632 64.667C51.9596 65.2504 53.0835 66.317 52.649 66.6754C52.3362 66.8087 51.7742 66.2337 50.7141 65.5629C50.023 65.116 49.2978 64.6973 48.5416 64.3087C47.4236 63.6837 46.8558 63.3629 45.6103 62.8254C44.9904 62.5587 43.8724 62.0712 43.8144 62.1587C43.38 63.1004 43.4321 63.992 43.4958 65.1545C43.5537 65.9587 43.7449 66.7629 44.1157 67.7921C44.4285 68.7754 44.7413 69.3171 45.2396 70.2546C45.7378 71.1962 46.6763 72.6712 46.6763 72.6712L48.1014 74.7338L49.4106 76.2963L50.0942 77.1004L50.3433 77.3671C50.3433 77.3671 50.6504 77.9088 50.3433 78.2629C50.0363 78.6171 49.6539 79.3838 49.0978 79.4296C48.5359 79.5171 47.2324 79.5671 47.2324 79.5671L39.8288 79.4754L35.9705 79.2505C35.9705 79.2505 35.5418 79.0713 33.3057 79.0713C31.9964 79.0713 30.9363 79.4713 30.189 79.5171C29.5691 79.5588 26.5161 79.3838 24.4653 79.963C22.5362 80.5463 21.6614 80.6796 20.9779 81.5755C20.4796 82.2463 23.411 83.3255 25.8325 83.7255C29.7545 84.3505 28.6306 83.1421 30.1194 82.3838C30.3106 82.2921 30.3743 82.2088 30.5655 82.163C31.5561 81.938 32.1123 82.513 33.1145 82.513C34.2268 82.513 34.8524 82.2463 35.9705 82.113C41.6304 81.5755 50.465 83.4963 50.465 83.4963C50.465 83.4963 52.649 83.988 53.6454 83.8546C54.8272 83.6755 54.5723 83.363 54.9431 82.8713C55.2559 82.4671 55.1342 82.3838 55.1922 81.9338C55.1922 81.6671 55.1342 81.5338 55.0705 81.2671C54.8214 80.5046 54.1436 79.4296 54.1436 79.4296C54.1436 79.4296 53.6396 78.6255 53.4484 78.2213C53.2051 77.6421 52.956 77.2796 52.8286 76.6546C52.4578 74.9963 52.5215 75.1338 52.5215 74.1963C52.5215 72.4962 52.7706 71.5546 53.3905 69.9004C54.329 67.4837 56.0727 66.4545 57.3762 64.1295C57.7527 63.5045 57.747 62.6087 58.1872 62.517C58.6797 62.4754 58.6217 63.6379 58.3726 64.3087C57.5616 66.6337 55.5745 67.6171 54.6418 69.9879C53.9582 71.8212 53.5817 72.8921 53.7729 74.7713C53.8308 75.8004 54.3927 77.4171 54.3927 77.4171C54.3927 77.4171 55.14 79.2046 55.5108 79.8755C55.8874 80.5463 56.6289 81.6671 56.6289 81.6671L58.3089 83.813L59.1779 84.838C59.1779 84.838 59.7919 85.2421 59.4849 85.913C59.1721 86.5838 58.558 86.9963 57.8049 87.5755C55.6962 89.3672 50.7836 92.0005 49.5381 92.6255C47.8001 93.5672 47.8523 93.838 47.7248 94.1089C47.0412 95.5422 45.0484 95.5839 42.8759 97.2839C42.3777 97.6422 41.0743 98.6214 41.3234 99.4714C41.445 99.7839 46.7979 100.459 49.9088 99.5214C52.342 98.7589 50.2217 97.9047 50.9053 97.0547C51.4035 96.4297 52.6432 96.4297 53.2051 95.888C54.132 94.9964 53.5122 95.0422 54.3232 94.3297C56.9996 92.0005 58.7434 90.663 63.5343 88.5588C63.9688 88.3797 64.7798 88.113 64.7798 88.113C64.7798 88.113 65.4576 87.8838 65.7067 87.613C66.0196 87.2547 65.9558 86.9463 65.9558 86.5422C65.9558 86.2713 65.8979 86.1422 65.8979 85.8755C65.8979 85.5588 65.9558 85.3797 65.8284 85.0672C65.7067 84.5755 65.278 84.1713 65.0289 83.9005C64.5452 83.4734 64.222 82.964 64.0905 82.4213C63.7512 81.5971 63.8188 80.7138 64.2816 79.9213C64.7798 78.9838 65.8979 78.2254 65.8979 78.2254L68.6902 76.8796C68.6902 76.8796 71.1233 75.6254 71.8764 75.1296C72.6817 74.6379 74.2342 73.6087 75.3523 72.4462C76.6616 71.1504 77.3452 70.3421 77.9013 68.7796C78.0867 68.1962 78.2779 67.3046 78.2779 67.3046C78.2779 67.3046 78.2779 66.6795 78.7761 66.6379C79.2685 66.592 79.3959 66.7212 79.3959 66.7212C79.3959 66.7212 79.8246 66.8962 79.9521 67.7921C80.01 68.6879 79.6451 69.7212 79.6451 69.7212C79.6451 69.7212 79.2685 70.7462 79.1468 71.3712C79.0889 71.7754 79.0773 71.9962 79.0773 72.4462C79.0773 73.2087 79.5176 73.8379 79.5176 73.8379C79.5176 73.8379 79.7667 73.9713 79.7667 73.6588C79.8001 73.174 79.9069 72.6934 80.0853 72.2254C80.2707 71.7796 80.3924 71.8629 80.7631 71.1004C81.2613 70.1171 80.8211 70.2129 81.0702 69.6296C81.1976 69.3629 81.5104 69.0921 81.8812 69.0921C82.2578 69.0921 82.3157 69.4504 82.3157 69.4504C82.3157 69.4504 82.6922 70.6171 82.3852 71.6879C82.0724 72.7629 80.9485 74.2379 80.9485 74.2379L80.0853 75.3088C80.0853 75.3088 79.4655 76.0713 79.2164 76.5629C78.9672 77.1004 78.8977 77.3254 79.0252 77.8129C79.2106 78.3546 79.7783 79.0754 80.0853 78.938C80.3344 78.8046 79.7146 78.3546 80.4619 77.2796C81.2092 76.2046 82.1882 75.5379 82.1882 75.5379C82.1882 75.5379 83.5612 74.3713 84.1811 73.4796C84.743 72.6754 85.305 71.3712 85.305 71.3712C85.305 71.3712 85.7452 70.2046 85.6178 69.2212C85.5599 68.2837 85.305 67.7921 85.305 67.7921L84.7488 67.0754L84.4302 66.5462L84.5576 66.2295C84.6793 66.1837 85.1196 66.4087 85.4961 66.767C85.9498 67.1876 86.2666 67.676 86.423 68.1962C86.5929 68.603 86.6769 69.0257 86.6721 69.4504C86.6721 69.8087 86.4925 71.2837 87.2341 72.2254C87.5469 72.6754 88.2942 73.7004 88.3579 73.2504C88.4796 72.2212 87.8539 71.7337 87.9177 70.7921C87.9756 69.7212 88.3579 69.9879 88.4796 69.4504C88.607 68.8671 88.7866 68.7296 88.665 67.9712C88.5395 67.4103 88.3535 66.8572 88.1088 66.317L87.6686 65.6004L87.4832 65.3337C87.4832 65.3337 87.6048 65.2045 87.7902 65.2045L89.2848 64.8462C89.2848 64.8462 91.2197 64.2212 91.9671 63.7712C92.7781 63.367 93.705 62.6462 93.705 62.6462C93.705 62.6462 94.9505 61.5337 95.5762 60.7295C97.0708 58.7128 97.065 56.1628 97.0013 54.9961C96.9434 53.8795 96.5031 52.4003 96.5031 52.4003C96.5031 52.4003 96.0049 50.6086 96.1323 49.4461C96.254 48.2836 96.3815 47.7461 96.3815 47.7461C96.3815 47.7461 96.3235 46.5836 97.6907 45.3294C99.0579 44.0794 99.672 43.2752 99.9211 42.3336C100.17 41.5294 99.7936 40.2336 99.2954 40.7252C98.7393 41.2627 98.5017 42.3377 97.6907 43.2294C96.5726 44.4836 94.9447 46.0044 94.1395 46.0044C93.705 46.0044 93.5834 45.2878 93.5834 45.2878C93.5834 45.2878 93.0272 44.0794 93.9599 42.5544C94.6435 41.4794 95.0085 41.1711 95.8832 40.3669C96.6943 39.6044 97.1867 39.2002 97.7486 38.3961C98.2468 37.6794 98.3627 37.546 98.6755 36.4294C98.7335 36.1585 98.6176 35.5794 98.2468 35.621C97.7486 35.621 96.3815 37.7752 94.9505 38.9836C93.5834 40.1002 91.0286 41.5294 91.0286 41.5294C91.0286 41.5294 90.7795 41.6586 90.7795 41.3002C90.7215 40.9877 90.652 40.0502 90.9011 39.2044C91.2136 38.1409 91.7843 37.1254 92.5869 36.2044C93.7687 34.7294 95.2576 33.7044 96.0049 33.1627C96.3177 32.9419 97.2504 32.5335 96.758 32.3085C96.3177 32.1293 95.0085 32.9335 94.0121 33.4752C92.7723 34.1419 92.3378 34.3294 91.0981 35.4044C89.8526 36.4752 89.5339 36.9252 89.5339 36.9252C89.5339 36.9252 88.3521 38.3086 88.0393 39.6502C87.7265 40.9919 87.7323 41.7502 87.7323 41.7502C87.7323 41.7502 87.7323 42.9627 87.9177 43.6794C88.0393 44.4378 88.4796 45.5961 88.4796 45.5961C88.4796 45.5961 89.1053 46.9003 89.3486 47.7086C89.6035 48.5128 90.0322 50.8795 90.0322 50.8795C90.0322 50.8795 90.345 52.5836 90.1538 54.192C89.9684 55.8045 89.7831 56.742 89.5339 57.2337C89.2848 57.7295 88.607 59.0253 87.4832 59.9212C86.4288 60.7712 86.1739 60.9045 86.1739 60.9045C86.1739 60.9045 85.0558 61.5712 84.1231 61.9295C83.1818 62.2963 82.2039 62.6125 81.1976 62.8754C80.6842 62.9411 80.1657 62.9842 79.6451 63.0045H78.8398L78.5907 62.8795L78.4575 62.517C78.4575 62.517 77.8434 60.7712 77.1019 59.6545C76.4762 58.7128 75.1669 57.417 75.1669 57.417C75.1669 57.417 72.925 55.2211 71.1813 54.0128C69.1884 52.5836 66.9523 51.5128 65.5793 50.7503C65.0811 50.4836 63.963 49.9836 63.963 49.9836C63.963 49.9836 59.427 46.7211 57.8107 44.1253C56.6868 42.3336 55.9453 41.0419 56.2581 39.0711C56.316 38.6252 56.5652 37.771 56.6868 37.771L57.4978 37.9502C57.5674 37.9919 58.3089 38.4877 58.9983 38.6669C59.369 38.7544 60.0468 38.8461 60.0468 38.8461C60.0468 38.8461 60.6088 38.8877 60.9158 38.9336C61.2286 39.0252 61.7906 39.1586 62.1613 39.2919C62.5379 39.4252 63.0882 39.7002 63.0882 39.7002L64.1542 40.2752L65.278 40.9002C65.278 40.9002 65.8921 41.2169 66.0775 41.2627C66.2629 41.3044 66.3903 41.3502 66.4541 41.3502H66.7032C66.7032 41.3502 66.9581 41.3002 67.016 41.1211C67.0797 40.9002 66.709 41.0794 66.147 40.6336C65.8002 40.4193 65.5063 40.1643 65.278 39.8794C65.278 39.8794 65.1506 39.5169 64.6524 39.1127C64.1542 38.7086 63.5343 38.3544 63.5343 38.3544C63.5343 38.3544 63.094 38.1336 62.4684 37.9961C61.8485 37.8627 61.6573 37.8586 61.5994 37.6794C61.5415 37.5002 62.3467 37.5919 62.3467 37.5919C62.3467 37.5919 63.2852 37.6794 64.0267 37.9502C64.7798 38.2169 65.2085 38.5336 65.2085 38.5336L65.7067 38.8461L66.0254 39.0711L66.3266 39.2044C66.3266 39.2044 66.6394 39.4252 66.7032 39.1127C66.7611 38.8461 66.6394 38.6211 66.5757 38.5752L66.2687 38.3544L65.0289 37.5919C64.7285 37.3587 64.3945 37.1492 64.0325 36.9669C63.5293 36.7117 62.9846 36.5019 62.4104 36.3419C61.7906 36.1585 61.4198 36.2044 60.7942 35.9794C60.3597 35.846 59.9831 35.7585 59.734 35.4919C59.6703 35.4502 59.3632 35.2627 59.9252 35.3544C60.4813 35.4419 60.8521 35.5794 61.4719 35.671C62.4684 35.8502 63.094 35.846 64.0325 36.071C64.4033 36.1585 64.9015 36.3377 64.9015 36.3377L66.0775 36.696C66.0775 36.696 67.6996 37.3252 68.8177 37.371C69.6464 37.4172 70.4788 37.3259 71.2508 37.1044C71.7024 36.9713 72.1226 36.7885 72.4963 36.5627C72.6106 36.4824 72.7117 36.3929 72.7976 36.296L72.925 36.071V35.8919C72.6122 35.621 71.9981 36.3419 71.0017 36.4752C69.9415 36.6127 69.9995 36.696 69.3159 36.6085C68.6505 36.5584 68.0329 36.3363 67.5779 35.9835C66.5757 35.3085 66.2107 34.6835 64.9015 34.2794C64.3453 34.1002 63.3373 33.921 63.3373 33.921C63.3373 33.921 61.9702 33.6085 61.2228 33.296C60.6667 33.071 59.4965 32.9377 59.8672 32.5793C60.0526 32.4002 61.5473 33.0252 62.6595 33.1169C63.4706 33.2044 64.0325 33.1627 64.6524 33.1627C65.2723 33.1627 66.147 33.0252 66.2745 33.0252C66.3961 32.9835 66.8885 33.0252 67.323 33.1169C67.7575 33.2044 68.0066 33.3377 68.4411 33.4752C68.8814 33.6085 69.3854 33.8335 69.507 33.8335L69.7561 33.8794L69.8836 33.7919L69.9415 33.7002L69.8836 33.6127L69.6866 33.521L69.3159 33.3419C69.3159 33.3419 68.7597 33.1169 68.2615 32.7585C67.7633 32.4002 67.323 32.0002 66.5815 31.821C65.8284 31.6418 64.9594 31.5543 64.9594 31.5543L64.0905 31.5043L63.7139 31.4627C63.7139 31.4627 63.094 31.3252 63.5922 31.2377C63.876 31.1753 64.1668 31.1307 64.4612 31.1043C64.9373 31.0303 65.4317 31.0446 65.8979 31.146C66.3961 31.2793 67.2072 31.5918 67.2651 31.5918C67.3288 31.6377 68.0761 32.046 68.8872 32.1793C69.6982 32.3127 70.7526 32.3585 70.7526 32.3585L71.2508 32.271L71.4999 32.221L71.6795 32.1293L71.6215 31.9127C71.6215 31.9127 71.6215 31.7293 71.2508 31.6835C70.6003 31.6292 69.978 31.4619 69.4375 31.196C68.7539 30.8377 68.2615 30.4793 68.2615 30.4793C68.2615 30.4793 67.7633 30.1627 66.7669 29.9793C65.84 29.8043 65.5272 29.8043 65.5272 29.8043L65.2085 29.7127L64.5307 29.496C64.5307 29.496 64.2121 29.3585 63.963 29.1377C63.7139 28.9127 63.3489 28.5043 64.4033 28.7293C65.4634 28.9543 65.7067 29.0877 65.7067 29.0877C65.7067 29.0877 66.2687 29.4918 66.7669 29.5335C67.0797 29.5793 67.3288 29.6252 67.52 29.446C67.827 29.221 66.9523 28.9543 66.3266 28.6377C65.9302 28.4147 65.5927 28.1423 65.3302 27.8335C65.3302 27.8335 64.9652 27.6127 65.5272 27.7043C66.0833 27.7918 67.0739 28.2418 67.0739 28.2418C67.0739 28.2418 67.5721 28.4168 67.827 28.4627C68.0066 28.5043 68.5106 28.7293 68.7597 28.8168C68.9451 28.8627 69.5128 28.9543 69.8778 29.0877C70.376 29.3127 70.6309 29.671 70.8742 29.8043C71.1233 29.9377 71.3145 30.1668 71.6273 30.2085C71.9344 30.2543 71.9923 30.3418 72.1777 30.2502C72.2644 30.211 72.3476 30.1678 72.4268 30.121C72.4268 30.121 72.4847 30.0252 72.1777 29.8918C71.8706 29.7585 71.4999 29.4043 71.4999 29.4043L71.3724 29.2252L71.3087 29.046L71.0017 28.6877L70.434 28.1043C70.434 28.1043 69.565 27.2543 68.7597 26.9377C68.0124 26.6252 67.4505 26.4502 67.4505 26.4502C67.4505 26.4502 67.0797 26.321 66.8943 26.2293C66.5815 26.0501 66.4541 25.9085 66.1992 25.6876C65.8921 25.4168 65.7763 25.246 65.3997 24.9793C64.7161 24.4876 62.6016 24.2126 63.4069 23.8543C63.8471 23.6751 64.4033 23.771 64.6524 23.8126C64.9015 23.8585 65.4634 24.0293 66.0254 24.1626C66.3961 24.2543 66.6452 24.2626 67.016 24.3501C67.3925 24.4418 67.827 24.4793 68.0124 24.571C68.1978 24.6585 68.389 24.8418 68.5106 24.8876C68.5743 24.9293 69.0668 25.5126 69.9357 25.8251C70.8047 26.1376 71.2508 26.3585 72.1198 26.4002C72.8033 26.446 73.9156 26.2752 73.9156 26.2752C73.9156 26.2752 74.2342 26.1793 73.9851 25.9543C73.6781 25.7293 73.6723 25.6876 73.4232 25.646C72.4268 25.3751 71.6273 25.4668 70.8742 24.9293C70.5672 24.7043 70.4339 24.6585 70.1848 24.3043C69.9357 23.946 70.069 23.8585 69.8836 23.6376C69.7561 23.4126 69.4375 23.096 69.4375 23.096C69.4375 23.096 68.5106 22.2876 67.5142 21.8876C66.8286 21.637 66.1803 21.3369 65.5793 20.9918C65.3939 20.9001 65.0289 20.5418 65.0289 20.5418L64.7103 20.1834L64.5307 19.9168C64.4033 19.4251 65.643 20.0543 66.3266 20.2334C67.4505 20.5001 68.0124 20.8585 69.1363 21.1293C69.7561 21.2626 70.1327 21.2585 70.7526 21.4376C71.8069 21.7501 72.1197 22.5126 73.2436 22.6043C73.8635 22.646 75.109 22.8251 74.8599 22.421C74.6108 21.9751 73.3653 21.9751 72.7454 21.4376C72.4326 21.2126 72.4326 20.996 72.1198 20.771C71.6215 20.3209 70.4397 19.9168 70.4397 19.9168C70.4397 19.9168 70.069 19.6959 69.6287 19.0709C69.2579 18.4459 68.3252 17.9876 66.6452 17.4084C65.5272 17.0084 63.2852 16.9168 64.1542 16.5126C64.6524 16.2459 65.0869 16.2918 65.7763 16.4251C66.4598 16.6043 66.7032 16.8334 67.2651 17.0084C67.827 17.1918 68.0761 17.2334 68.192 17.2793C68.3195 17.3209 68.7539 17.4584 68.9451 17.4584C69.061 17.5001 70.0053 17.5918 70.2544 17.6376L71.4999 17.8584L72.4963 18.1251C72.4963 18.1251 72.9887 18.2626 73.2958 18.2626C73.6028 18.2626 74.1126 18.1751 74.1126 18.1751L74.4834 17.9959L74.5413 17.9043C74.5413 17.9043 74.7325 17.6834 74.2343 17.6376C73.9889 17.6093 73.7411 17.5926 73.4927 17.5876L73.0467 17.5001L72.8729 17.4584C72.8729 17.4584 71.9981 16.9668 71.2508 16.7418C70.9358 16.6569 70.6229 16.568 70.3123 16.4751L70.0053 16.4251L69.6345 16.3834C69.6345 16.3834 69.3159 16.3834 68.8177 16.0668C68.3195 15.7543 68.1341 15.5751 67.6996 15.2626L67.1434 14.8626C67.1434 14.8626 66.6452 14.5876 66.6452 14.3626C66.7032 14.0084 67.7633 14.7709 67.7633 14.7709L68.5164 15.1293C68.5164 15.1293 69.1363 15.4459 70.2544 15.4876C71.3724 15.5334 72.7454 15.2626 72.7454 15.2626C72.7454 15.2626 72.925 15.1793 73.5449 15.3084C74.1647 15.4376 74.6687 15.7084 74.6687 15.7084L75.1669 16.0251L75.9143 16.6043L76.0359 16.5626C76.0938 16.5209 76.4125 16.2918 75.8563 15.8001C75.2944 15.3043 74.3617 14.8626 74.3617 14.8626C74.3617 14.8626 73.1162 14.3251 71.8706 14.1459C70.6309 13.9667 70.0632 13.9667 70.0632 13.9667C70.0632 13.9667 69.1305 13.9667 68.5686 13.5209C68.0066 13.0709 67.6416 12.6251 67.6416 12.6251L67.4505 12.0001C67.4505 12.0001 67.1434 11.7292 66.5236 11.5501C65.9616 11.3709 65.3302 11.1042 65.3302 11.1042C65.3302 11.1042 64.4033 10.8792 64.3338 10.5626C64.1484 9.98339 65.8979 10.5626 66.8248 10.6959C67.6938 10.8292 68.0703 11.0584 68.9393 11.1959C69.5865 11.3282 70.2629 11.3706 70.9322 11.3209C71.3666 11.3209 71.6157 11.2876 72.0502 11.2376C72.4905 11.2376 72.8033 11.1959 73.2436 11.2376C73.8635 11.3292 74.1126 11.5501 74.7325 11.7292C75.109 11.8626 75.2944 11.9917 75.7289 12.0376C76.1054 12.0834 76.8528 12.2667 76.7253 11.9959L76.5341 11.8167C76.2213 11.5042 75.8563 11.5042 75.4798 11.2834C74.6687 10.8334 74.298 10.4792 73.3653 10.1667C72.8404 9.96495 72.2727 9.82697 71.6853 9.75839C71.1813 9.71672 70.8105 9.80839 70.3123 9.71672C69.7504 9.58339 69.5708 9.40422 69.0088 9.18339C68.1399 8.82505 67.6359 8.50838 66.7032 8.23755C66.1531 8.0953 65.5921 7.97567 65.0231 7.87921L64.5829 7.83754L64.4091 7.79171C63.5343 7.56671 65.9558 7.07921 67.0739 6.85421C67.6359 6.76671 67.885 6.67087 68.4411 6.7167C68.9393 6.75837 69.5013 7.25837 70.0632 7.03337C70.8742 6.72087 69.1305 5.8667 68.5686 5.73337C67.8212 5.50836 66.5178 5.6917 66.5178 5.6917L63.656 5.6417L62.8449 5.5542C62.8449 5.5542 62.3467 5.5542 61.976 5.2417C61.5994 4.92919 60.1743 3.67085 58.558 3.49169C56.878 3.31252 56.3798 3.49169 56.2581 3.40835C54.8272 1.79168 53.3268 1.43751 52.2029 0.679171C51.8959 0.454169 51.4035 -0.0416669 51.276 0.00416669L51.2818 0ZM58.0772 4.75003C58.1756 4.74662 58.2742 4.74662 58.3726 4.75003L58.6797 4.88753C58.9345 5.06878 59.1442 5.28019 59.2995 5.51253C59.3632 5.6917 58.558 5.47086 58.251 5.42086C57.9352 5.35747 57.6398 5.24986 57.382 5.1042C57.382 5.1042 57.2487 4.97086 57.5558 4.83753C57.717 4.77759 57.8957 4.75034 58.0772 4.75003ZM59.537 6.95837C59.6877 6.95837 59.7977 6.98337 59.7977 6.98337L60.1048 7.12504C60.3598 7.30619 60.5695 7.51762 60.7246 7.75004C60.7884 7.92921 59.9831 7.70838 59.6761 7.65838C59.3603 7.59498 59.065 7.48737 58.8071 7.34171C58.8071 7.34171 58.6797 7.20837 59.0562 7.07504C59.1943 6.9997 59.3637 6.96007 59.537 6.96254V6.95837ZM48.6343 7.01671C48.7892 7.01104 48.9445 7.01662 49.0978 7.03337C49.0978 7.03337 49.3469 7.03337 49.7177 7.16254C50.0942 7.34171 50.3433 7.87921 50.3433 7.87921C50.3433 7.87921 50.4012 7.97088 50.0942 7.97088C49.903 7.97088 49.903 7.75004 49.7177 7.65838C49.4686 7.52504 49.2832 7.47921 48.9703 7.39171C48.6633 7.30421 48.2288 7.43338 48.1709 7.21254C48.1709 7.07921 48.4026 7.02921 48.6343 7.01671ZM43.7449 7.53754C43.9882 7.48754 43.7449 7.83754 43.7449 7.83754C43.7449 7.83754 42.9397 8.77505 41.8216 9.13338C40.7035 9.49172 39.9562 9.67506 37.8359 9.80839C37.5289 9.80839 37.6621 9.67089 37.6621 9.67089C37.6621 9.67089 40.0779 9.18339 41.4508 8.64588C42.1057 8.38452 42.7296 8.0849 43.3162 7.75004C43.4406 7.66266 43.5858 7.58792 43.7449 7.53754ZM48.1014 7.78754C48.1014 7.78754 48.4779 7.79588 48.9124 8.01671C49.3527 8.24171 49.7234 9.00422 49.7234 9.00422C49.7234 9.00422 49.8509 9.49172 49.5381 9.67089C49.2252 9.85006 48.727 9.54172 48.4721 9.27089C48.2502 9.04513 47.9201 8.88635 47.5452 8.82505C47.047 8.69172 46.2997 9.09172 46.178 8.82505C46.178 8.73338 46.236 8.50838 46.236 8.50838C46.236 8.50838 46.3634 8.24171 46.9254 8.02088C47.4236 7.79588 48.1014 7.79171 48.1014 7.79171V7.78754ZM59.6761 9.51672C59.9252 9.53339 60.2728 9.67089 60.545 9.67089C61.3561 9.67089 62.0339 9.67089 62.5958 9.75839C63.094 9.85006 63.2157 10.0709 62.9666 10.0709C62.7853 10.1057 62.5979 10.1212 62.4104 10.1167C61.8543 10.1167 61.9122 9.93756 61.1707 10.2084C60.4176 10.4751 60.9795 10.3459 59.9252 10.6126C58.9288 10.8834 59.1721 10.1667 59.1721 10.1667C59.1721 10.1667 59.2474 10.0292 59.369 9.66672C59.4154 9.53755 59.5255 9.50422 59.6761 9.51672ZM31.6141 11.5917C31.9906 11.5917 32.68 11.7751 32.68 12.1751C32.7379 12.5792 32.2977 12.4001 31.9848 12.5334C31.8052 12.6251 31.6836 12.6709 31.4345 12.8042C31.1217 12.9834 30.8088 13.4292 30.6234 13.2917C30.3685 13.1584 30.496 12.6667 30.496 12.6667C30.496 12.6667 30.6872 12.3084 30.9363 11.9501C31.2491 11.5917 31.6141 11.5917 31.6141 11.5917ZM61.3735 12.0542C61.4714 12.0576 61.5686 12.0688 61.6631 12.0876C61.6631 12.0876 61.8485 12.1292 61.9702 12.2167C62.0976 12.3084 62.5958 12.6251 62.5958 12.8001C62.5958 12.9376 61.7906 12.7084 61.4198 12.6667C61.0433 12.6209 60.5508 12.3542 60.5508 12.3542C60.5508 12.3542 60.4234 12.2709 60.7942 12.1376C60.9748 12.076 61.1738 12.0474 61.3735 12.0542ZM50.3955 12.4209C50.4534 12.4209 50.4476 12.4834 50.3375 12.6251C50.0942 12.9834 49.3469 13.4292 49.3469 13.4292C49.3469 13.4292 48.4779 14.3209 48.2925 14.4542C47.4815 14.9043 46.4851 14.6376 46.0506 14.6834C45.6798 14.7251 45.9289 14.4542 45.9289 14.4542C45.9289 14.4542 46.9891 14.1459 47.6669 13.8792C48.5822 13.5501 50.1406 12.4209 50.3955 12.4209ZM37.6042 13.2084C37.7374 13.2084 37.8417 13.2501 37.8417 13.3876C37.9054 13.7001 37.1002 13.9209 37.1002 13.9209C37.1002 13.9209 36.8569 13.9667 36.7931 13.6542C36.7352 13.3417 37.1002 13.2959 37.1002 13.2959C37.1002 13.2959 37.3898 13.1959 37.6042 13.2084ZM53.014 13.6959C53.1182 13.6542 53.0313 14.1001 53.0313 14.1001C53.0313 14.1001 52.8402 14.6876 52.4057 14.8668C51.8495 15.0918 50.4708 15.3584 50.3491 15.2251C50.3491 15.1334 52.1508 14.7251 52.956 13.7459C52.9697 13.7262 52.9895 13.7091 53.014 13.6959ZM61.4372 13.8584C61.5386 13.8588 61.6396 13.8672 61.7384 13.8834C61.7384 13.8834 61.9122 13.9251 62.1034 14.0084C62.2888 14.1459 62.7291 14.5084 62.7928 14.6876C62.8507 14.8668 61.9817 14.6459 61.5473 14.6001C61.1765 14.5542 60.6088 14.2417 60.6088 14.2417C60.6088 14.2417 60.4929 14.1042 60.8695 13.9709C61.0391 13.8938 61.2366 13.8547 61.4372 13.8584ZM53.9003 14.8751C54.0162 14.8501 53.8308 15.2251 53.8308 15.2251C53.8308 15.2251 53.5817 15.8084 53.0835 15.9418C52.4636 16.0751 50.1058 16.1168 50.0421 15.9834C49.9841 15.8459 52.7764 15.6668 53.8308 14.9084C53.8491 14.8928 53.8732 14.8813 53.9003 14.8751ZM61.6284 15.6459C61.7451 15.6458 61.8616 15.6542 61.976 15.6709C61.976 15.6709 62.1671 15.7126 62.3525 15.8043C62.5379 15.9376 63.0361 16.3459 63.0998 16.5668C63.1578 16.8376 62.2309 16.5668 61.7964 16.4793C61.4073 16.3947 61.0451 16.256 60.7304 16.0709C60.7304 16.0709 60.6088 15.9418 60.9795 15.7626C61.1761 15.6802 61.4011 15.6398 61.6284 15.6459ZM61.6284 17.8834C61.7451 17.8834 61.8616 17.8917 61.976 17.9084C61.976 17.9084 62.1671 17.9501 62.3525 18.0418C62.5379 18.1751 63.0361 18.5834 63.0998 18.8043C63.1578 19.0293 62.2309 18.7584 61.7964 18.6668C61.4076 18.5858 61.0452 18.4498 60.7304 18.2668C60.7304 18.2668 60.6088 18.1793 60.9795 18.0001C61.1767 17.9192 61.4016 17.8802 61.6284 17.8876V17.8834ZM52.5447 20.0251C53.0255 20.1251 52.5853 22.646 51.6584 23.8168C50.4643 25.2542 49.0197 26.5761 47.3598 27.7502C46.4909 28.196 47.0528 27.3918 47.0528 27.3918C47.0528 27.3918 49.4743 24.9793 50.5982 23.2793C51.4093 22.071 51.9075 20.4626 52.2782 20.1459C52.3941 20.0543 52.4752 20.0126 52.5447 20.0251ZM61.5241 20.0584C61.6591 20.0616 61.7931 20.0756 61.9238 20.1001C61.9238 20.1001 62.1671 20.1418 62.3525 20.2793C62.5379 20.4126 63.1635 20.9085 63.2215 21.1335C63.2215 21.4001 62.1671 21.0376 61.6747 20.996C61.2423 20.9084 60.8412 20.7549 60.4987 20.546C60.4987 20.546 60.3655 20.3668 60.7999 20.1876C61.0159 20.09 61.2697 20.0447 61.5241 20.0584ZM61.1301 22.2251C61.2467 22.2237 61.3631 22.2306 61.4777 22.246C61.4777 22.246 61.6689 22.296 61.8543 22.3876C62.0397 22.521 62.5379 22.921 62.6016 23.1418C62.6595 23.3668 61.7326 23.1001 61.2982 23.0543C60.9135 22.9722 60.5552 22.8363 60.2438 22.6543C60.2438 22.6543 60.1279 22.5168 60.4929 22.3376C60.6859 22.257 60.9071 22.2179 61.1301 22.2251ZM60.9506 24.1668C61.0432 24.1635 61.136 24.1635 61.2286 24.1668L61.5473 24.3043C61.804 24.4853 62.0157 24.6967 62.1729 24.9293C62.1729 25.1126 61.4198 24.8876 61.049 24.846C60.6783 24.8001 60.1801 24.5335 60.1801 24.5335C60.1801 24.5335 60.0526 24.4001 60.4292 24.2668C60.5896 24.2044 60.7683 24.1702 60.9506 24.1668ZM60.6088 26.071C60.6964 26.0749 60.7835 26.0832 60.8695 26.096L61.1186 26.1876C61.2402 26.2751 61.6052 26.5418 61.6052 26.6752C61.6052 26.8543 60.9274 26.6335 60.6783 26.6335C60.4288 26.5798 60.1979 26.489 60.0005 26.3668C60.0005 26.3668 59.931 26.271 60.1743 26.1376C60.3017 26.071 60.4639 26.0668 60.6088 26.071ZM60.0874 27.8293C60.159 27.829 60.2306 27.8318 60.3017 27.8377L60.5508 27.9293C60.6783 28.0168 60.9795 28.2418 60.9795 28.3752C60.9216 28.4668 60.3597 28.2877 60.1106 28.2877C59.8918 28.2331 59.6836 28.1589 59.4907 28.0668C59.4907 28.0668 59.4328 27.9752 59.6819 27.8877C59.8095 27.8472 59.9479 27.8273 60.0874 27.8293ZM16.0073 28.6918C16.6909 28.7835 16.8184 28.8252 16.7547 29.0502C16.8126 29.2752 15.9494 29.271 15.9494 29.271C15.9494 29.271 14.6981 29.4543 14.8893 29.1418C15.1384 28.8252 16.0073 28.6918 16.0073 28.6918ZM59.5197 29.2127C59.6471 29.2127 59.7514 29.2293 59.7514 29.2293L60.0005 29.321C60.1221 29.4085 60.4292 29.6335 60.4292 29.7668C60.3655 29.9002 59.8035 29.7252 59.5602 29.6793C59.3053 29.6335 58.9346 29.4502 58.9346 29.4502C58.9346 29.4502 58.8766 29.3585 59.1257 29.271C59.2493 29.2305 59.3839 29.2106 59.5197 29.2127ZM58.8245 30.7835C58.8826 30.7834 58.9407 30.7862 58.9983 30.7918L59.1837 30.8835C59.2416 30.9252 59.5544 31.1502 59.5544 31.2418C59.5544 31.3752 59.1141 31.2418 58.865 31.2002C58.6797 31.1585 58.3784 31.021 58.3784 31.021C58.3784 31.021 58.3205 30.9293 58.5059 30.8418C58.6003 30.8014 58.7146 30.7812 58.8245 30.7835ZM41.0917 31.2835C41.4441 31.2834 41.7962 31.2987 42.146 31.3293C43.884 31.5085 45.564 32.6294 45.3091 32.7627C45.06 32.896 44.6892 32.7627 44.5618 32.7627L43.9419 32.5419L43.0034 32.3627C43.0034 32.3627 41.3234 32.0919 40.0837 32.1335C38.8381 32.1793 37.72 32.4919 37.72 32.4919C37.72 32.4919 37.2218 32.6752 37.1002 32.4502C37.0365 32.1835 37.2914 32.046 37.2914 32.046L37.3493 31.9543C37.3493 31.9543 38.7744 31.2752 41.0917 31.2835ZM11.4713 31.8168C11.5119 31.8168 11.5292 31.8252 11.5292 31.8252L11.6509 31.9168C11.593 31.9168 11.8363 32.3627 11.2801 32.8085C10.7182 33.2585 8.98025 35.6294 8.60949 35.2252C8.23293 34.9127 10.2895 32.671 10.724 32.2252C11.0484 31.8543 11.3439 31.8168 11.4713 31.8168ZM58.1061 32.3043C58.193 32.3043 58.2568 32.3127 58.2568 32.3127L58.4363 32.3627L58.755 32.671C58.6912 32.8044 58.3147 32.7169 58.1293 32.671C57.9439 32.671 57.689 32.4919 57.689 32.4919C57.689 32.4919 57.6311 32.4502 57.8165 32.3669C57.9029 32.3268 58.0033 32.3051 58.1061 32.3043ZM18.8112 33.5669C18.9097 33.5419 18.9792 33.6002 19.0603 33.6169L19.3674 33.7044L19.5585 33.8377L20.1842 34.2835C20.4333 34.5502 21.1111 35.4502 20.9837 35.5335C20.4275 35.9377 20.2421 35.4002 19.4369 34.7294C18.6258 34.1044 18.8112 33.5669 18.8112 33.5669ZM57.2372 33.7752C57.2867 33.7765 57.3356 33.7835 57.382 33.796L57.5674 33.8377L57.8802 34.1544C57.8802 34.2419 57.5036 34.1044 57.3183 34.1044C57.1271 34.1044 56.8838 33.9252 56.8838 33.9252C56.8838 33.9252 56.7563 33.8835 56.9417 33.8377C57.0304 33.7983 57.1329 33.7781 57.2372 33.7794V33.7752ZM29.1462 35.4044C29.3489 35.4169 29.0709 35.6752 29.0709 35.6752C29.0709 35.6752 28.0049 36.7002 27.3851 37.3294C26.574 38.1752 25.5776 39.4711 25.3922 39.3377C25.2069 39.2044 26.267 37.7794 26.8289 37.0169C27.4488 36.0794 28.3815 35.5877 28.7523 35.496C28.8737 35.4475 29.0079 35.4178 29.1462 35.4085V35.4044ZM11.4655 38.7586L11.5872 38.8502C11.5872 38.8502 11.6509 39.0252 11.2164 39.5169C10.7819 40.0086 10.4633 40.0127 10.4633 40.0127C10.4633 39.9711 10.3474 39.7919 10.7182 39.2544C11.089 38.7169 11.4655 38.7586 11.4655 38.7586ZM3.83594 40.5086C3.87195 40.5154 3.90425 40.53 3.92863 40.5502C4.11401 40.7294 3.55787 41.5336 3.55787 41.5336C3.55787 41.5336 2.99593 42.3794 2.80476 42.0211C2.61938 41.7086 3.00172 41.1294 3.00172 41.1294C3.43621 40.8544 3.62738 40.4794 3.83594 40.5086ZM53.4542 41.6627C54.0104 41.7086 53.9524 42.4711 53.9524 42.6502C54.1378 43.9461 54.8909 45.2503 56.2581 46.8169C58.1872 49.0086 61.2982 50.7086 61.1707 50.8461C60.8579 51.067 57.7528 49.3211 56.6289 48.3378C54.7635 46.7253 53.3847 44.9794 52.956 42.7877C52.8286 42.2961 52.8286 41.5752 53.4542 41.6627ZM16.8184 42.2877C16.94 42.2877 17.4962 42.4294 17.4962 42.4294L18.8634 42.8294C18.9213 42.8294 19.6165 43.0544 20.1784 43.2752L21.534 43.9002L21.9163 44.1294C21.9163 44.2211 22.3508 44.7128 21.4761 44.5794C20.6071 44.4419 18.7417 43.4127 17.9944 43.1461C17.2413 42.8794 16.0073 42.7877 16.5693 42.4294C16.6272 42.3877 16.6909 42.2877 16.8184 42.2877ZM10.2142 44.7586C10.2563 44.7527 10.2995 44.7527 10.3416 44.7586C10.7182 44.7586 10.7182 44.9753 10.7182 44.9753V45.1128C10.7182 45.1128 10.7124 45.9211 10.7761 46.5461C10.7761 46.7253 11.4655 48.7378 11.4655 48.7378C11.4655 48.7378 11.5872 48.9169 11.3381 48.9169C11.1527 48.9169 10.9673 48.6461 10.9673 48.6461C10.9673 48.6461 10.4633 48.1128 10.2721 47.7128C10.0925 47.3544 10.0288 46.7669 10.0288 46.7669C10.0288 46.7669 9.90136 46.0086 9.90136 45.7419C9.96509 45.3836 9.96509 45.0669 10.0288 44.8878C10.0373 44.8558 10.059 44.8263 10.091 44.8033C10.123 44.7803 10.1697 44.7647 10.2142 44.7586ZM1.5824 45.8294C1.6394 45.8188 1.6992 45.8188 1.7562 45.8294C2.12696 45.8753 1.93579 46.3628 1.93579 46.5878C1.93579 46.8128 1.57661 47.2128 1.44916 47.2128C1.3275 47.2128 1.07261 46.8128 1.13633 46.5878C1.19426 46.3919 1.23481 45.8919 1.5824 45.8294ZM33.1087 49.5503C33.8155 49.5086 35.8604 51.6211 38.8323 53.9253C42.1924 56.5253 46.1085 58.9878 46.236 59.3003C46.4851 59.8378 43.4958 58.1337 41.8795 57.242C37.5868 54.867 32.3614 50.0378 32.987 49.5919C33.0201 49.5688 33.0629 49.5541 33.1087 49.5503ZM92.6217 51.7295C92.7376 51.7211 92.836 51.8295 92.836 51.8295L92.9635 51.9586C92.9635 52.0503 93.705 54.1503 93.6413 55.492C93.5138 57.367 93.398 58.7128 91.8454 60.1462C89.9742 61.892 86.7359 63.6879 87.4194 62.2545C87.8539 61.4045 90.7215 60.3295 91.8396 57.9587C92.4653 56.5253 92.5927 55.1795 92.5927 55.1795L92.4653 52.4545C92.4653 52.4545 92.3958 52.2336 92.3958 51.917C92.4653 51.7836 92.5464 51.7378 92.6217 51.7295ZM60.8868 56.3962C61.4662 56.442 61.7268 56.7045 61.0433 57.0628C60.2322 57.4628 59.9252 57.417 59.4212 57.817C58.865 58.3087 58.6854 59.9712 58.1235 59.3003C57.5674 58.6295 57.9381 57.6878 58.8766 56.9712C59.1262 56.769 59.4378 56.6115 59.7867 56.5109C60.1356 56.4104 60.5123 56.3739 60.8868 56.3962ZM15.7061 58.2253C15.9436 58.192 16.5693 58.5337 16.5693 58.5337C16.8763 58.5753 17.1891 58.9837 17.1891 58.9837C17.1891 58.9837 17.3166 59.3003 16.94 59.3878C16.5693 59.5212 16.3202 59.2503 16.3202 59.2503C16.3202 59.2503 15.5091 58.4462 15.625 58.267C15.633 58.256 15.6445 58.2464 15.6586 58.2392C15.6727 58.2319 15.689 58.2272 15.7061 58.2253ZM75.416 64.5795C75.5377 64.5795 75.7926 64.6712 76.1054 65.1212C76.4183 65.5712 75.6072 68.7379 74.6108 68.2879C74.0489 68.0212 74.9178 67.2212 74.9178 66.5504C74.9178 66.0129 74.7904 65.6045 74.7904 65.1587C74.7904 64.7129 75.416 64.5795 75.416 64.5795ZM56.9533 70.1004C57.1734 70.1171 57.2314 70.3421 56.9301 70.7921C56.4956 71.4629 56.374 71.6879 56.3103 72.3171C56.1828 72.9837 56.7505 74.8588 55.8816 74.1504C55.5687 73.8337 55.2559 72.3587 55.505 71.6421C55.7773 70.6337 56.5825 70.0796 56.9533 70.1004ZM52.2029 78.9254C52.4115 78.9046 52.5157 78.9796 52.5157 78.9796C52.6432 79.1588 52.3883 79.3421 52.3246 79.3879C52.0901 79.4755 51.8379 79.5359 51.5773 79.5671C51.2065 79.6088 51.4035 79.3879 51.4035 79.3879C51.4035 79.3879 51.641 79.1129 51.9538 78.9796C52.032 78.9516 52.1162 78.9333 52.2029 78.9254ZM35.536 79.8755C36.0342 79.8755 36.0342 80.0546 36.0342 80.0546C36.0342 80.188 35.8431 80.238 35.3391 80.1921C34.9104 80.1505 34.8524 80.0588 34.9162 80.013C34.9162 79.9713 35.0378 79.8755 35.536 79.8755ZM39.3132 80.0046C39.3598 80.0009 39.407 80.0038 39.4522 80.013C39.4522 80.013 41.5667 80.2796 42.9339 80.3213C43.9303 80.3671 44.4285 80.4171 45.4249 80.3713C45.9869 80.3713 45.674 80.3213 46.543 80.3213C46.8558 80.2796 46.6705 80.5963 46.4214 80.6421C45.4887 80.8213 45.1121 80.7255 44.3069 80.7713C43.6175 80.813 43.3046 80.8588 42.621 80.8588C41.4392 80.8588 41.3234 80.9088 39.6434 80.5505C39.3305 80.463 38.9482 80.1921 39.0756 80.1046C39.1023 80.0762 39.1375 80.0525 39.1786 80.0352C39.2197 80.0179 39.2657 80.0075 39.3132 80.0046ZM25.2069 80.2755C25.9368 80.288 25.7051 80.463 25.7051 80.463C25.7051 80.463 25.6993 80.638 25.2648 80.8588C24.8245 81.0838 24.6449 80.9505 24.5812 80.9505C24.5233 80.9505 24.083 80.7713 24.083 80.5921C24.1467 80.413 24.8361 80.2838 24.8361 80.2838C24.9593 80.2752 25.0831 80.2724 25.2069 80.2755ZM64.3743 86.4422C64.4248 86.4414 64.4752 86.4442 64.5249 86.4505L64.6466 86.6297C64.6466 86.6713 64.1484 87.1713 63.8993 87.1713C63.5922 87.1213 63.7081 86.8588 63.7081 86.8588C63.7081 86.8588 63.5864 86.588 63.9572 86.5005C64.0911 86.4653 64.2319 86.4456 64.3743 86.4422ZM59.7282 87.7672C59.7746 87.7672 59.8325 87.7713 59.8615 87.7922V87.9713C59.9194 88.1088 58.2973 89.4088 57.1792 90.1713C56.1249 90.888 54.3174 91.8714 54.3174 91.8714H54.0683V91.6422L54.1378 91.5547L54.2595 91.4214L54.3869 91.2839L54.5086 91.1589L54.8851 90.838L55.7541 90.2589L56.6231 89.6755L57.9961 88.688C57.9961 88.688 58.4885 88.2922 58.6739 88.2005C58.8592 88.113 58.9867 88.0213 59.1721 87.9338C59.3575 87.8672 59.5776 87.7755 59.7282 87.7672ZM50.7315 93.1547C50.7827 93.1493 50.835 93.1517 50.8849 93.1618C50.9348 93.1718 50.9812 93.1893 51.0211 93.213C51.2123 93.5255 50.9053 93.613 50.9053 93.613L50.3375 93.9297C50.2738 93.9297 49.903 94.1547 49.7814 94.0172C49.6539 93.8839 49.8393 93.7047 49.8393 93.6589C49.8393 93.6172 50.2159 93.3047 50.5287 93.213C50.59 93.1838 50.659 93.164 50.7315 93.1547ZM44.666 97.2964C44.9209 97.2756 45.1063 97.5506 45.1063 97.5506C45.1063 97.5506 45.2338 97.6797 45.2338 97.8589C45.2338 97.9964 44.6718 97.9506 44.3648 98.1297C43.9882 98.3089 44.7413 98.8506 43.5537 98.8047C42.8759 98.7631 43.2467 98.3131 43.3104 98.2672L43.7391 97.8214C44.052 97.5047 44.2431 97.4589 44.5502 97.3214C44.5856 97.3068 44.6253 97.2982 44.666 97.2964Z" fill="black"/>
</svg>
